<?xml version="1.0" encoding="UTF-8"?>
<svg id="Layer_2" data-name="Layer 2" xmlns="http://www.w3.org/2000/svg" viewBox="0 0 805.13 934.21">
  <defs>
    <style>
      .cls-1 {
        fill: #da8;
      }

      .cls-1, .cls-2, .cls-3, .cls-4, .cls-5, .cls-6, .cls-7, .cls-8, .cls-9, .cls-10, .cls-11, .cls-12, .cls-13, .cls-14, .cls-15, .cls-16, .cls-17, .cls-18, .cls-19, .cls-20, .cls-21, .cls-22, .cls-23, .cls-24 {
        stroke-width: 0px;
      }

      .cls-2 {
        fill: #e4d7c9;
      }

      .cls-3 {
        opacity: .68;
      }

      .cls-3, .cls-13 {
        fill: #aa8978;
      }

      .cls-4 {
        fill: #db9f68;
      }

      .cls-5 {
        fill: #010101;
      }

      .cls-6 {
        fill: #9bc679;
      }

      .cls-7 {
        fill: #7f5c4a;
      }

      .cls-8 {
        fill: #af5926;
      }

      .cls-9 {
        fill: #34b991;
      }

      .cls-10 {
        fill: #00291e;
      }

      .cls-11 {
        fill: #01423b;
      }

      .cls-12 {
        fill: #d08762;
      }

      .cls-14 {
        fill: #fdbb36;
      }

      .cls-15 {
        fill: #005a39;
      }

      .cls-16 {
        fill: #dcad84;
      }

      .cls-17, .cls-23 {
        fill: #fff;
      }

      .cls-18 {
        fill: #0d6049;
      }

      .cls-19 {
        fill: #35b37f;
      }

      .cls-20 {
        fill: #bcdeaf;
      }

      .cls-21 {
        fill: #d28e73;
      }

      .cls-22 {
        fill: #1a8a62;
      }

      .cls-23 {
        opacity: .51;
      }

      .cls-24 {
        fill: #a7d6a2;
      }

      .cls-25 {
        opacity: .61;
      }
    </style>
  </defs>
  <g id="Layer_1-2" data-name="Layer 1">
    <g>
      <path class="cls-2" d="M30.74,453.06c69.77,71.13,125.84,135.91,71.02,232.79-54.82,96.89,79.91,296.06,223.1,237.92,143.19-58.14,170.6-157.11,277.75-107.63,107.15,49.48,158.23-34.5,160.72-106.95,1.59-46.47-43.22-88.88-38.1-131.39,1.38-11.53,8.4-21.51,14.89-31.17,6.41-9.54,12.9-19.63,19.18-30.13,32.33-54.12,58.91-119.48,38.91-180.14-18.28-55.41-52.61-68.92-79.01-85.71-.84-.53-1.67-1.07-2.49-1.61-12.1-7.98-22.31-16.99-28.14-31.66-18.69-47.01,7.56-145.98-93.4-186.8-64.26-25.98-139.76-40.94-193.03-22.22-.83.29-1.67.59-2.49.9-29.19,10.99-51.36,32.47-60.76,68.33-26.44,100.87-99.26,176.69-209.1,145.6-.62-.17-1.25-.35-1.88-.54-.21-.06-.41-.12-.61-.17C16.83,190.89-38.9,382.06,30.74,453.06Z"/>
      <path class="cls-11" d="M54.84,453.97c65.25,66.52,117.68,127.1,66.41,217.7-51.27,90.61,74.73,276.87,208.64,222.49,133.91-54.37,159.54-146.93,259.74-100.65,100.2,46.28,147.97-32.26,150.3-100.01,1.49-43.46-40.42-83.12-35.63-122.87,1.29-10.78,7.86-20.11,13.93-29.15,5.99-8.93,12.06-18.35,17.94-28.18,30.24-50.61,55.09-111.74,36.39-168.46-17.09-51.82-49.2-64.46-73.89-80.16-.79-.5-1.56-1-2.33-1.5-11.32-7.46-20.86-15.88-26.31-29.6-17.48-43.96,7.07-136.51-87.34-174.69-60.09-24.3-130.71-38.29-180.51-20.78-.78.27-1.56.56-2.33.84-27.3,10.27-48.03,30.36-56.82,63.9-24.72,94.33-92.83,165.23-195.54,136.16-.58-.16-1.17-.33-1.76-.5-.19-.06-.38-.11-.57-.16C41.83,208.79-10.29,387.57,54.84,453.97Z"/>
      <g>
        <path class="cls-2" d="M559.51,443.92v158.57h3.04v-157.6c-.76-.24-1.53-.48-2.29-.73-.25-.08-.5-.16-.74-.24Z"/>
        <g>
          <rect class="cls-2" x="531.59" y="664.26" width="57.88" height="56.19" transform="translate(1121.07 1384.72) rotate(180)"/>
          <rect class="cls-17" x="575.4" y="664.26" width="14.07" height="56.19" transform="translate(1164.87 1384.72) rotate(180)"/>
          <rect class="cls-16" x="531.59" y="664.26" width="13.28" height="56.19"/>
          <path class="cls-17" d="M561.01,600.86c3.35,0,6.06,2.69,6.06,6.02s-2.71,6.02-6.06,6.02-6.06-2.69-6.06-6.02,2.71-6.02,6.06-6.02ZM561.01,611.6c2.63,0,4.76-2.11,4.76-4.72s-2.13-4.72-4.76-4.72-4.76,2.11-4.76,4.72,2.13,4.72,4.76,4.72Z"/>
          <path class="cls-2" d="M536.55,655.11h48.76s8.72-6.49,4.76-15.75-15.46-15.35-15.46-15.35h-27.35s-11.5,6.1-15.46,15.35,4.76,15.75,4.76,15.75Z"/>
          <rect class="cls-17" x="546.46" y="622.44" width="28.68" height="1.57" rx=".76" ry=".76" transform="translate(1121.6 1246.46) rotate(-180)"/>
          <rect class="cls-2" x="527.83" y="662.69" width="65.94" height="1.57" rx=".76" ry=".76" transform="translate(1121.6 1326.96) rotate(180)"/>
          <path class="cls-16" d="M551.25,621.23c.25-.15.53-.23.82-.23h16.98c.29,0,.57.08.82.23l2.02,1.22h-22.66l2.02-1.22Z"/>
          <path class="cls-13" d="M534.17,655.54c.42-.25.9-.39,1.39-.39h50.69c.49,0,.97.13,1.39.39l3.41,2.05h-60.3l3.41-2.05Z"/>
          <rect class="cls-2" x="553.4" y="615.31" width="14.42" height="5.69" rx="2.75" ry="2.75" transform="translate(1121.22 1236.31) rotate(180)"/>
          <rect class="cls-2" x="559.1" y="611.17" width="3.67" height="4.13" transform="translate(1121.86 1226.48) rotate(180)"/>
          <path class="cls-17" d="M577.09,655.11h8.23s8.72-6.49,4.76-15.75-15.46-15.35-15.46-15.35h-6.24c7.04,2.07,13.97,8.46,14.17,16.73.2,8.27-5.45,14.37-5.45,14.37Z"/>
          <path class="cls-16" d="M544.68,655.11h-8.23s-8.72-6.49-4.76-15.75c3.96-9.25,15.46-15.35,15.46-15.35h6.24c-7.04,2.07-13.97,8.46-14.17,16.73-.2,8.27,5.45,14.37,5.45,14.37Z"/>
          <rect class="cls-2" x="523.96" y="657.6" width="74.13" height="3.12" rx="1.51" ry="1.51" transform="translate(1122.06 1318.32) rotate(180)"/>
          <path class="cls-13" d="M572.69,718.04h-25.24v-20.21h1.97s-1.2-3.35.63-5.05c1.83-1.71,2.32-1.97,2.32-1.97,0,0-3.94-4.07-2.46-9.18s10.16-12.27,10.16-12.27c0,0,8.68,7.15,10.16,12.27,1.48,5.12-2.46,9.18-2.46,9.18,0,0,.49.26,2.32,1.97,1.83,1.71.63,5.05.63,5.05h1.97v20.21Z"/>
          <path class="cls-7" d="M543.08,718.04h-8.84v-20.21h.69s-.42-3.35.22-5.05c.64-1.71.81-1.97.81-1.97,0,0-1.38-4.07-.86-9.18.52-5.12,3.56-12.27,3.56-12.27,0,0,3.04,7.15,3.56,12.27s-.86,9.18-.86,9.18c0,0,.17.26.81,1.97.64,1.71.22,5.05.22,5.05h.69v20.21Z"/>
          <path class="cls-16" d="M586.69,718.04h-8.84v-20.21h.69s-.42-3.35.22-5.05c.64-1.71.81-1.97.81-1.97,0,0-1.38-4.07-.86-9.18.52-5.12,3.56-12.27,3.56-12.27,0,0,3.04,7.15,3.56,12.27s-.86,9.18-.86,9.18c0,0,.17.26.81,1.97.64,1.71.22,5.05.22,5.05h.69v20.21Z"/>
          <rect class="cls-13" x="529.51" y="660.72" width="62.24" height="1.97" transform="translate(1121.27 1323.41) rotate(180)"/>
          <path class="cls-2" d="M529.05,720.46h64.42c.42,0,.76.34.76.76v.05c0,.42-.34.76-.76.76h-64.42c-.42,0-.76-.34-.76-.76v-.05c0-.42.34-.76.76-.76Z"/>
          <path class="cls-16" d="M587.89,729.18c-.42.25-.9.39-1.39.39h-50.69c-.49,0-.97-.13-1.39-.39l-3.41-2.05h60.3l-3.41,2.05Z"/>
          <rect class="cls-2" x="523.96" y="724" width="74.13" height="3.12" rx="1.51" ry="1.51"/>
          <rect class="cls-13" x="530.31" y="722.03" width="62.24" height="1.97"/>
          <path class="cls-16" d="M555.58,732.69h8.72s2.44,1.12,1.32,3.08-5.68,3.87-5.68,3.87c0,0-4.56-1.9-5.68-3.87s1.32-3.08,1.32-3.08Z"/>
          <rect class="cls-2" x="545.93" y="729.56" width="27.82" height="3.12" rx="1.51" ry="1.51" transform="translate(1119.68 1462.25) rotate(180)"/>
          <rect class="cls-3" x="531.59" y="664.26" width="57.88" height="1.65" transform="translate(1121.07 1330.18) rotate(180)"/>
        </g>
      </g>
      <g>
        <g>
          <path class="cls-2" d="M222,702.12v.68h1.74v-.68c-.29-.05-.58-.08-.88-.08s-.58.03-.86.08Z"/>
          <g>
            <rect class="cls-20" x="200.23" y="751.64" width="44.5" height="43.95"/>
            <rect class="cls-17" x="233.91" y="751.64" width="10.82" height="43.95" transform="translate(478.64 1547.23) rotate(180)"/>
            <rect class="cls-14" x="200.23" y="751.64" width="10.21" height="43.95"/>
            <path class="cls-17" d="M222,702.12c.28-.05.56-.08.86-.08s.59.03.88.08c2.15.42,3.78,2.32,3.78,4.62,0,2.13-1.4,3.92-3.32,4.5-.43.13-.88.2-1.35.2-.51,0-1.01-.08-1.47-.24-1.85-.62-3.19-2.38-3.19-4.46,0-2.31,1.64-4.23,3.81-4.63ZM221.38,710.13c.45.2.95.32,1.47.32.47,0,.93-.1,1.35-.26,1.35-.54,2.31-1.88,2.31-3.44,0-2.04-1.64-3.7-3.66-3.7s-3.66,1.66-3.66,3.7c0,1.51.9,2.81,2.18,3.38Z"/>
            <path class="cls-20" d="M204.04,744.48h37.49s6.71-5.08,3.66-12.32-11.89-12.01-11.89-12.01h-21.03s-8.84,4.77-11.89,12.01c-3.05,7.24,3.66,12.32,3.66,12.32Z"/>
            <rect class="cls-17" x="211.66" y="718.93" width="22.05" height="1.23" rx=".59" ry=".59" transform="translate(445.37 1439.08) rotate(180)"/>
            <rect class="cls-20" x="197.34" y="750.41" width="50.69" height="1.23" rx=".6" ry=".6"/>
            <path class="cls-14" d="M215.35,717.98c.19-.12.41-.18.63-.18h13.06c.22,0,.44.06.63.18l1.55.95h-17.42l1.55-.95Z"/>
            <path class="cls-12" d="M202.22,744.82c.32-.2.69-.3,1.07-.3h38.97c.38,0,.75.1,1.07.3l2.62,1.61h-46.36l2.62-1.61Z"/>
            <path class="cls-20" d="M219.16,713.35h6.75c1.2,0,2.17.96,2.17,2.15v.15c0,1.19-.97,2.15-2.17,2.15h-6.75c-1.2,0-2.17-.96-2.17-2.15v-.15c0-1.19.97-2.15,2.17-2.15Z"/>
            <rect class="cls-20" x="221.38" y="710.11" width="2.82" height="3.23"/>
            <path class="cls-17" d="M235.21,744.48h6.32s6.71-5.08,3.66-12.32-11.89-12.01-11.89-12.01h-4.8c5.41,1.62,10.74,6.62,10.9,13.09.15,6.47-4.19,11.24-4.19,11.24Z"/>
            <path class="cls-14" d="M210.29,744.48h-6.32s-6.71-5.08-3.66-12.32c3.05-7.24,11.89-12.01,11.89-12.01h4.8c-5.41,1.62-10.74,6.62-10.9,13.09-.15,6.47,4.19,11.24,4.19,11.24Z"/>
            <rect class="cls-20" x="194.37" y="746.43" width="56.99" height="2.44" rx="1.19" ry="1.19"/>
            <path class="cls-14" d="M231.83,793.7h-19.4v-15.81h1.51s-.92-2.62.49-3.95c1.41-1.33,1.78-1.54,1.78-1.54,0,0-3.03-3.18-1.89-7.18,1.14-4,7.81-9.6,7.81-9.6,0,0,6.68,5.59,7.81,9.6s-1.89,7.18-1.89,7.18c0,0,.38.21,1.78,1.54,1.41,1.33.49,3.95.49,3.95h1.51v15.81Z"/>
            <path class="cls-12" d="M209.07,793.7h-6.8v-15.81h.53s-.32-2.62.17-3.95c.49-1.33.63-1.54.63-1.54,0,0-1.06-3.18-.66-7.18.4-4,2.74-9.6,2.74-9.6,0,0,2.34,5.59,2.74,9.6.4,4-.66,7.18-.66,7.18,0,0,.13.21.63,1.54.49,1.33.17,3.95.17,3.95h.53v15.81Z"/>
            <path class="cls-20" d="M242.59,793.7h-6.8v-15.81h.53s-.32-2.62.17-3.95c.49-1.33.63-1.54.63-1.54,0,0-1.06-3.18-.66-7.18s2.74-9.6,2.74-9.6c0,0,2.34,5.59,2.74,9.6s-.66,7.18-.66,7.18c0,0,.13.21.63,1.54.49,1.33.17,3.95.17,3.95h.53v15.81Z"/>
            <rect class="cls-12" x="198.63" y="748.87" width="47.85" height="1.54"/>
            <path class="cls-20" d="M247.79,796.82h-49.5c-.33,0-.6-.27-.6-.59v-.04c0-.33.27-.6.6-.6h49.5c.33,0,.6.27.6.6v.04c0,.33-.27.59-.6.59Z"/>
            <path class="cls-14" d="M243.51,802.41c-.32.2-.69.3-1.07.3h-38.97c-.38,0-.75-.1-1.07-.3l-2.62-1.61h46.36l-2.62,1.61Z"/>
            <rect class="cls-20" x="194.37" y="798.36" width="56.99" height="2.44" rx="1.19" ry="1.19"/>
            <rect class="cls-12" x="199.24" y="796.82" width="47.85" height="1.54"/>
            <path class="cls-14" d="M218.67,805.16h6.71s1.88.87,1.02,2.41c-.86,1.54-4.37,3.03-4.37,3.03,0,0-3.5-1.49-4.37-3.03-.86-1.54,1.02-2.41,1.02-2.41Z"/>
            <path class="cls-20" d="M212.45,805.16h19.01c.66,0,1.19-.53,1.19-1.18v-.08c0-.65-.53-1.18-1.19-1.18h-19.01c-.66,0-1.19.53-1.19,1.18v.08c0,.65.53,1.18,1.19,1.18Z"/>
            <g class="cls-25">
              <rect class="cls-12" x="200.23" y="751.64" width="44.5" height="1.29"/>
            </g>
          </g>
        </g>
        <path class="cls-2" d="M221.96,538.49v165.02h3.04v-164.01c-.76-.25-1.53-.5-2.29-.76-.25-.09-.5-.17-.74-.25Z"/>
      </g>
      <g>
        <path class="cls-21" d="M417.92,664.81s8.12,14.83,13.08,19.29c4.96,4.45,21.96,16.39,22.51,21.46.54,5.07-9.19,5.65-9.18,12.89.02,7.24-8.62,25.2-15.63,31.37-7.01,6.17-11.78,4.94-10.32.79,1.45-4.15,4.69-7.96,5.11-10.42.42-2.46-1.15-15.72-1.2-23.94-.05-8.22-1.74-15.51-4.3-18.86-2.56-3.35-15.23-15.21-19.55-17.92s15.93-17.98,19.47-14.66Z"/>
        <path class="cls-22" d="M315.37,593.81c16.16,19.36,73.87,87.18,81.43,91.42,3.42,1.93,8.33-.83,12.91-5.25,5.51-5.32,10.55-13.06,11.97-17.97,2.6-9-21.83-35.11-35.38-53.99-1.92-2.68-4.3-5.79-6.96-9.15-16.12-20.36-42.75-50.08-42.75-50.08,0,0-23.76-5.38-32.66-4.81-8.9.56-4.72,30.48,11.44,49.84Z"/>
        <path class="cls-15" d="M315.37,593.81c16.16,19.36,73.87,87.18,81.43,91.42,3.42,1.93,8.33-.83,12.91-5.25-14.62-17.57-34.69-42.49-39.55-52.41-4.48-9.15,1.62-20.05,9.18-28.71-16.12-20.36-42.75-50.08-42.75-50.08,0,0-23.76-5.38-32.66-4.81-8.9.56-4.72,30.48,11.44,49.84Z"/>
        <g>
          <path class="cls-19" d="M261.03,491.06s-16.6-12.05-10.58-28.91c6.02-16.86,23.38-22.27,23.38-22.27,0,0,8.27,13.19,3.37,27.49-4.9,14.3-16.17,23.69-16.17,23.69Z"/>
          <path class="cls-18" d="M270.75,505.26s-.02.02-.04.04c-.16.13-.4.11-.53-.06-.47-.57-11.45-14.22-11.69-25.06-.24-10.87,8.75-20.48,8.84-20.57.14-.15.38-.16.54-.02.15.14.16.38.02.53-.09.09-8.87,9.49-8.63,20.04.23,10.58,11.41,24.46,11.52,24.6.12.15.11.36-.02.49Z"/>
          <path class="cls-19" d="M431.51,372.87c7.35,5.89,7.37,14.65,7.37,14.65,0,0,1.85-17.07,5.94-7.52,4.08,9.55,2.14,23.48,2.14,23.48,0,0,5.63-17.13,9.02-6,3,9.85-6.6,25.53-8.84,29,2.68-4.02,16.08-23.59,15.95-11.8-.06,5.28-4.24,12.76-9.22,19.82,5.01-3.24,11.47-4.8,6.06,9.04-7.07,18.08-26.78,26.82-26.78,26.82l-3.38,2.24s-3.93-9.37-2.74-16.49c1.19-7.11,10.52-3.28,10.52-3.28,0,0-1.85-16.61.94-26.1,2.17-7.39,5.48-4.13,6.83-2.32-2.21-3.34-9.59-15.06-8.06-20.83.4-1.52.99-2.31,1.65-2.64-5.75-3.64-13.87-9.27-13.76-11.98.16-4.2,13.29.83,13.29.83,0,0-17.62-10.58-20.56-14.95-2.94-4.36,6.28-7.89,13.63-2Z"/>
          <path class="cls-18" d="M382.73,514.23c.18.26.53.35.81.2.37-.2,37.38-20.13,51.72-51.85,7.33-16.2,11.64-31.49,12.48-44.22.9-13.69-2.08-24.06-8.86-30.82l-13.72-13.68c-.24-.24-.64-.24-.88,0-.24.24-.25.63,0,.87l13.72,13.68c12.7,12.66,11.26,40.21-3.88,73.67-14.17,31.34-50.81,51.07-51.18,51.27-.3.16-.42.54-.26.84,0,.02.02.04.03.05Z"/>
          <path class="cls-6" d="M242.74,510.18s-30.09-15.04-24.93-43.9c5.16-28.86,31.75-42.24,31.75-42.24,0,0,16.95,19.12,12.9,43.53s-19.72,42.61-19.72,42.61Z"/>
          <path class="cls-18" d="M262.29,530.52s-.03.05-.05.07c-.23.25-.62.28-.88.05-.91-.8-22.36-19.92-25.69-37.37-3.33-17.5,8.59-35.44,8.71-35.62.19-.28.58-.36.86-.17.29.19.36.57.17.86-.12.17-11.76,17.7-8.52,34.7,3.25,17.04,25.07,36.49,25.29,36.68.24.21.27.55.1.8Z"/>
        </g>
        <g>
          <path class="cls-14" d="M187.83,513.67c-3.85-1.55-7,3.32-3.97,6.15,45.13,42.06,105.85,67.82,172.62,67.82,139.34,0,252.28-112.15,252.28-250.5,0-90.84-48.69-170.38-121.58-214.3-3.53-2.13-7.41,2.21-4.88,5.45,33.1,42.47,52.76,95.79,52.65,153.67-.27,139.84-114.95,251.87-255.77,249.98-32.28-.43-63.09-6.89-91.35-18.28Z"/>
          <path class="cls-14" d="M182.66,517.21c.01.91.37,1.84,1.2,2.61,45.13,42.06,105.84,67.82,172.62,67.82,139.34,0,252.29-112.16,252.29-250.5,0-90.84-48.7-170.38-121.59-214.3-1-.61-2.03-.69-2.93-.42-2.28.66-3.76,3.55-1.95,5.87,33.1,42.46,52.76,95.79,52.65,153.67-.28,139.84-114.95,251.88-255.78,249.97-32.27-.43-63.09-6.88-91.35-18.28-2.8-1.12-5.22,1.14-5.17,3.54Z"/>
          <path class="cls-20" d="M182.66,517.21c35.93,19.55,77.17,30.66,121.03,30.66,139.34,0,252.28-112.15,252.28-250.5,0-68.07-27.34-129.8-71.72-174.95-2.28.66-3.76,3.55-1.95,5.87,33.1,42.46,52.76,95.79,52.65,153.67-.28,139.84-114.95,251.88-255.78,249.97-32.27-.43-63.09-6.88-91.35-18.28-2.8-1.12-5.22,1.14-5.17,3.54Z"/>
          <path class="cls-4" d="M230.64,554.3c37.04,21.21,80.02,33.35,125.84,33.35,139.34,0,252.28-112.15,252.28-250.5,0-90.84-48.7-170.38-121.58-214.3-1.34-.8-2.72-.69-3.79-.05,64.74,45.34,107.02,120.18,107.02,204.82,0,138.34-112.95,250.5-252.28,250.5-38.45,0-74.88-8.54-107.5-23.82Z"/>
          <g>
            <path class="cls-17" d="M527.85,492.49c.62,0,1.24-.23,1.72-.69.65-.62,16.16-15.49,32.11-42.15,14.72-24.6,32.47-64.21,33.44-113.23.97-48.99-13.96-89.09-26.67-114.09-13.77-27.12-27.59-42.45-28.17-43.08-.92-1.01-2.5-1.09-3.52-.18-1.02.92-1.1,2.48-.18,3.49.14.15,14.03,15.58,27.5,42.15,12.41,24.48,27.01,63.71,26.05,111.61-.95,47.94-18.33,86.72-32.74,110.8-15.61,26.09-31.12,40.95-31.27,41.1-.99.94-1.03,2.51-.08,3.5.49.51,1.14.76,1.8.76Z"/>
            <path class="cls-17" d="M476.15,537.53c.53,0,1.06-.17,1.51-.51l41.11-31.28c1.09-.83,1.3-2.38.46-3.47-.84-1.08-2.4-1.29-3.49-.46l-41.11,31.28c-1.09.83-1.3,2.38-.46,3.47.49.64,1.23.97,1.98.97Z"/>
          </g>
        </g>
        <path class="cls-4" d="M363.71,518.84s-23.03,11.46-14.33,30.88c8.7,19.41,10.06,17.97,6.18,20.67-3.87,2.71,5.05,17.22,5.05,17.22l-16.9.03-23.94-58.13,43.94-10.67Z"/>
        <g>
          <path class="cls-1" d="M375.54,723.91s2.49,16.7,5.61,22.58c3.11,5.88,14.95,22.89,13.7,27.83-1.25,4.95-10.59,2.16-13.08,8.97-2.49,6.8-16.82,20.72-25.54,24.12-8.72,3.4-12.77.62-9.97-2.78,2.8-3.4,7.16-5.88,8.41-8.04s4.36-15.15,7.16-22.89c2.8-7.73,3.74-15.15,2.49-19.17-1.25-4.02-9.03-19.48-12.15-23.5s21.18-11.44,23.36-7.11Z"/>
          <path class="cls-22" d="M271.2,548.24c.58,4.18,4.63,16.53,10.62,33.09.98,2.7,2.01,5.51,3.08,8.42.31.84.62,1.69.95,2.54,20.71,55.74,56.77,143.26,64.13,147.7,2.75,1.66,5.61,2.12,8.45,1.75,7.04-.9,13.86-6.85,18.11-12.01.42-.51.82-1.01,1.19-1.5,5.61-7.42-17.44-52.57-18.69-77.32-.56-11.14-5.66-33.05-11.09-53.79-.22-.84-.44-1.68-.66-2.52-2.8-10.6-5.65-20.75-7.97-28.84-3.02-10.51-5.15-17.53-5.15-17.53-10.28-12.2-65.46-17.94-62.97,0Z"/>
          <path class="cls-15" d="M271.2,548.24c.58,4.18,4.63,16.53,10.62,33.09.98,2.7,2.01,5.51,3.08,8.42.31.84.62,1.69.95,2.54,19.76,1.51,44.65,3.46,61.34,4.78.26.02.51.04.76.06-.22-.84-.44-1.68-.66-2.52-2.8-10.6-5.65-20.75-7.97-28.84-3.02-10.51-5.15-17.53-5.15-17.53-10.28-12.2-65.46-17.94-62.97,0Z"/>
          <path class="cls-10" d="M392.71,317.84s12.58-7.12,17.25-17.79c4.67-10.67,4.52-24.59,3.11-26.13-1.4-1.55-34.52-6.08-34.52-6.08,0,0-19.85,12.99-16.99,28.24,2.87,15.26,31.15,21.76,31.15,21.76Z"/>
          <path class="cls-21" d="M276.68,347.86s-5.73-4.82-7.88-8.99-2.71-10.46-9.03-10.27c-6.33.19-10.31,1.88-13.29-.79-2.98-2.66-3.52-8.78-4.67-8.65s-2.2-.28-1.91,3.75,2.78,12.57,4.3,15.58c1.52,3.01,3.96,5.38,7.05,6.09,3.09.71,4.4,1.97,5.57,3.43s8.83,15.77,8.83,15.77l11.03-15.91Z"/>
          <path class="cls-9" d="M349.38,361.23s-20.25,29.91-25.85,28.05c-5.61-1.86-41.43-42.99-44.85-42.06-3.43.93-17.9,14.95-12.85,24.33,5.06,9.38,49.26,65.36,61.26,57.94,12.01-7.42,22.29-68.26,22.29-68.26Z"/>
          <path class="cls-1" d="M261.23,354.43s-6.44-6.39-8.51-11.55-1.87-12.58-9.76-13.2c-7.89-.62-13.08.82-16.4-2.68-3.32-3.51-3.11-10.72-4.57-10.72s-2.7-.62-2.91,4.12c-.21,4.74,1.66,15.05,3.11,18.76,1.45,3.71,4.15,6.8,7.89,8.04,3.74,1.24,5.19,2.89,6.44,4.74,1.25,1.86,8.72,19.59,8.72,19.59l15.99-17.11Z"/>
          <path class="cls-6" d="M254.62,549.71c3.96,13.19,9.02,25.17,12.21,28.84,2.98,3.44,8.91,3.79,14.98,2.78,8.46-1.4,17.21-5.42,18.66-7.37,2.44-3.29.1-10.56,0-10.86.15.1,5.08,3.79,11.83,9.27,5.81,4.72,19.26-2.14,27-6.59,1.38-.79,2.58-1.51,3.52-2.07,6.23-3.71-6.57-35.59-6.57-35.59l12.41-4.05,17.1-5.58,20.66-6.74s19.32-9.64,24.3-20.42c4.98-10.78,12.46-73.61,6.85-95.26-4.42-17.05-15.45-37.55-19.93-45.49-.34-.59-.63-1.11-.89-1.55-.68-1.18-1.07-1.82-1.07-1.82l-41.03,4.33s-7.33,5.24-12.13,9.52c-2.2,1.97-3.87,3.74-4.07,4.71-.17.87-1.62,6.7-3.81,14.87-2.65,9.89-6.37,23.21-10.24,35.32-1.47,4.62-2.96,9.06-4.41,13.06-1.35,3.7-2.66,7.02-3.91,9.78-1.37,3.04-2.65,5.38-3.79,6.76-1.25,1.5-3.23,3.61-5.76,6.17-9.8,9.95-27.62,26.62-40.73,39.88-7.17,7.24-12.92,13.47-15.19,17.04-4.14,6.5-.92,24.7,3.99,41.05Z"/>
          <path class="cls-9" d="M265.83,491.62c6.45.34,16.42.32,30.71-1.1,29.07-2.89,61.88-13.09,79.01-52.06,17.13-38.97,12.13-53.19,12.13-53.19,0,0-16.39,23.61-41.73,46.7-11.35,10.34-21.78,10.18-29.84,6.85-1.37,3.04-2.65,5.38-3.8,6.76-6.08,7.33-30.01,29.38-46.48,46.05Z"/>
          <path class="cls-6" d="M386.44,392.68s-6.85,34.64-20.56,57.83c-13.7,23.2-39.25,18.43-45.79,14.01s-40.8-41.53-51.7-52.36-30.21-33.4-30.21-38.97,18.07-24.74,22.43-23.5,57.57,62.03,63.83,66.27,14.91-8.75,17.12-14.63c2.21-5.88,4.71-22.58,12.18-28.76s40.69-9.11,32.7,20.1Z"/>
          <path class="cls-9" d="M334.16,517.73l2.11,10.39,29.52-9.63c-21.84,3.89-31.62-.76-31.62-.76Z"/>
          <path class="cls-1" d="M335,292.34s0,.07,0,.13c0,.78.06,1.58.16,2.44.19,1.73.53,3.66.77,5.91.02.16.04.32.06.5,1.25,7.19,4.05,17.07,10.35,23.45,1.34,1.36,2.85,2.57,4.53,3.54.02.01.06.03.09.05.54.16,1.01.35,1.36.56.19.11.34.24.45.37h0s.01.02.02.02c.19.22.27.48.22.77-.08.48-.23,1.65-.42,3.21-.34,2.8-.82,6.88-1.24,10.6h0c-.55,4.85-1.03,9.08-1.03,9.08l40.77-14.76s.14-11.88,1.39-19.08c1.25-7.19,3.24-10.49,3.24-10.49,0,0-4.7,3.71-5.94,2.68s-.41-5.36-.41-5.36c0,0,6.9-7.21,6.35-10.72-.54-3.51.5-7.63-3.24-8.66-3.74-1.03-9.14-1.44-11.63,2.47-2.49,3.92-3.94,8.25-4.36,5.15-.42-3.09,2.49-25.15,2.07-26.39-.41-1.24-38-13.2-38-13.2,0,0-5.19,14.44-4.57,18.56.62,4.13,3.3,9.9.62,13.82-1.18,1.74-1.59,3.44-1.61,5.33Z"/>
          <path class="cls-8" d="M352.32,328.93c.19.11.34.24.45.37h0s.01.02.02.02c.19.22.27.48.22.77-.08.48-.23,1.65-.42,3.21-.34,2.8-.82,6.88-1.24,10.6.27-.04,9.11-1.35,20.56-9.06,11.62-7.84,13.08-21.44,13.08-21.44,0,0-3.74,7.42-5.4,9.05-1.66,1.63-14.73,5.8-26.75,6.85.12-.09.01-.22-.52-.36Z"/>
          <g>
            <path class="cls-17" d="M335,292.34s0,.08,0,.13c0-.04,0-.09,0-.13Z"/>
            <path class="cls-5" d="M335,292.34s0,.04,0,.06c0-.02,0-.04,0-.06h0ZM335,292.4s0,.05,0,.07c0-.02,0-.05,0-.07h0Z"/>
          </g>
          <g>
            <path class="cls-17" d="M335.16,294.91c-.1-1.22-.14-2.08-.16-2.44,0,.78.06,1.58.16,2.44Z"/>
            <path class="cls-5" d="M335,292.47c.01.37.05,1.22.16,2.44-.1-.86-.16-1.67-.16-2.44h0Z"/>
          </g>
          <path class="cls-10" d="M354.83,283.04c0,2.56,1.01,4.64,2.26,4.64s2.26-2.08,2.26-4.64-1.01-4.64-2.26-4.64-2.26,2.08-2.26,4.64Z"/>
          <ellipse class="cls-10" cx="341.24" cy="280.94" rx="1.67" ry="3.93"/>
          <g>
            <path class="cls-8" d="M343.33,301.6c.2,0,.39-.09.51-.27.2-.28.13-.67-.16-.86-.82-.57-3.06-2.37-3.52-3.85-.25-.81,2.05-2.76,3.57-4.04,1.47-1.24,2.85-2.41,3.53-3.49,1.81-2.87-1.81-6.35-1.97-6.5-.25-.24-.64-.23-.88.02-.24.25-.23.64.02.87.03.03,3.04,2.93,1.77,4.95-.58.92-1.95,2.08-3.28,3.2-2.38,2.02-4.44,3.76-3.95,5.35.68,2.19,3.87,4.41,4,4.5.11.07.23.11.35.11Z"/>
            <path class="cls-8" d="M345.62,313.06c.51,0,1.06-.05,1.64-.18,3.7-.81,6.68-4.55,6.8-4.71.21-.27.16-.66-.11-.87-.27-.21-.66-.16-.87.1-.03.04-2.84,3.55-6.09,4.26-3.14.69-4.97-1.19-4.99-1.21-.24-.25-.63-.26-.88-.03-.25.23-.26.63-.03.87.08.08,1.71,1.75,4.52,1.75Z"/>
          </g>
          <g>
            <path class="cls-10" d="M363.88,278.39c-.8-.85-1.09-2-1.93-2.84-.91-.9-2.11-1.46-3.38-1.59-1.18-.12-1.2-1.98,0-1.86,1.47.15,2.82.62,3.99,1.52.5.38.94.81,1.33,1.31.51.66.76,1.54,1.32,2.14.82.88-.5,2.19-1.32,1.31h0Z"/>
            <path class="cls-10" d="M342.68,271.95c-.52-.07-.94.03-1.32.42-.83.86-2.15-.45-1.32-1.31.67-.7,1.67-1.09,2.64-.97.5.06.93.38.93.93,0,.45-.43.99-.93.93h0Z"/>
          </g>
          <path class="cls-17" d="M413.93,277.01s10.3-43.61-28.95-51.44c-39.25-7.83-45.05,27.94-45.43,30.51-.38,2.58,62.2,20.62,74.37,20.93Z"/>
          <path class="cls-24" d="M397.14,351.34s-1.84-15.05-7.81-12.99c-5.97,2.06-46.26,9.48-47.11,11.75s-1.05,10,.33,10.98c1.38.98,21.63-3.26,34.84-4.34,13.22-1.07,19.74-5.4,19.74-5.4Z"/>
        </g>
      </g>
      <g>
        <path class="cls-2" d="M127.31,222.49v93.77h2.49v-93.2c-.62-.14-1.25-.28-1.88-.43-.21-.05-.41-.09-.61-.14Z"/>
        <g>
          <rect class="cls-2" x="96.12" y="385.06" width="63.78" height="61.91" transform="translate(256.01 832.03) rotate(180)"/>
          <rect class="cls-17" x="144.39" y="385.06" width="15.51" height="61.91" transform="translate(304.28 832.03) rotate(180)"/>
          <rect class="cls-16" x="96.12" y="385.06" width="14.63" height="61.91"/>
          <path class="cls-17" d="M128.53,315.19c3.69,0,6.68,2.97,6.68,6.63s-2.99,6.63-6.68,6.63-6.68-2.97-6.68-6.63,2.99-6.63,6.68-6.63ZM128.53,327.03c2.89,0,5.24-2.33,5.24-5.2s-2.35-5.2-5.24-5.2-5.24,2.33-5.24,5.2,2.35,5.2,5.24,5.2Z"/>
          <path class="cls-2" d="M101.58,374.97h53.73s9.61-7.16,5.24-17.35c-4.37-10.19-17.04-16.92-17.04-16.92h-30.14s-12.67,6.72-17.04,16.92c-4.37,10.19,5.24,17.35,5.24,17.35Z"/>
          <rect class="cls-17" x="112.5" y="338.97" width="31.6" height="1.73" rx=".84" ry=".84" transform="translate(256.6 679.68) rotate(180)"/>
          <rect class="cls-2" x="91.97" y="383.32" width="72.66" height="1.73" rx=".84" ry=".84" transform="translate(256.6 768.38) rotate(180)"/>
          <path class="cls-16" d="M117.78,337.64c.27-.16.59-.25.91-.25h18.71c.32,0,.63.09.91.25l2.22,1.34h-24.97l2.22-1.34Z"/>
          <path class="cls-13" d="M98.96,375.45c.46-.28.99-.43,1.53-.43h55.86c.54,0,1.07.15,1.53.43l3.76,2.26h-66.44l3.76-2.26Z"/>
          <rect class="cls-2" x="120.14" y="331.11" width="15.89" height="6.27" rx="3.03" ry="3.03" transform="translate(256.18 668.5) rotate(180)"/>
          <rect class="cls-2" x="126.42" y="326.56" width="4.04" height="4.55" transform="translate(256.89 657.67) rotate(180)"/>
          <path class="cls-17" d="M146.24,374.97h9.06s9.61-7.16,5.24-17.35c-4.37-10.19-17.04-16.92-17.04-16.92h-6.88c7.75,2.28,15.4,9.33,15.62,18.43.22,9.11-6.01,15.83-6.01,15.83Z"/>
          <path class="cls-16" d="M110.53,374.97h-9.06s-9.61-7.16-5.24-17.35c4.37-10.19,17.04-16.92,17.04-16.92h6.88c-7.75,2.28-15.4,9.33-15.62,18.43-.22,9.11,6.01,15.83,6.01,15.83Z"/>
          <rect class="cls-2" x="87.71" y="377.71" width="81.69" height="3.44" rx="1.66" ry="1.66" transform="translate(257.1 758.87) rotate(180)"/>
          <path class="cls-13" d="M141.4,444.31h-27.81v-22.26h2.17s-1.32-3.69.7-5.57c2.01-1.88,2.56-2.17,2.56-2.17,0,0-4.34-4.48-2.71-10.12,1.63-5.64,11.19-13.52,11.19-13.52,0,0,9.57,7.88,11.19,13.52s-2.71,10.12-2.71,10.12c0,0,.54.29,2.56,2.17,2.01,1.88.7,5.57.7,5.57h2.17v22.26Z"/>
          <path class="cls-7" d="M108.78,444.31h-9.75v-22.26h.76s-.46-3.69.24-5.57c.71-1.88.9-2.17.9-2.17,0,0-1.52-4.48-.95-10.12.57-5.64,3.92-13.52,3.92-13.52,0,0,3.35,7.88,3.92,13.52s-.95,10.12-.95,10.12c0,0,.19.29.9,2.17s.24,5.57.24,5.57h.76v22.26Z"/>
          <path class="cls-16" d="M156.83,444.31h-9.75v-22.26h.76s-.46-3.69.24-5.57.9-2.17.9-2.17c0,0-1.52-4.48-.95-10.12s3.92-13.52,3.92-13.52c0,0,3.35,7.88,3.92,13.52.57,5.64-.95,10.12-.95,10.12,0,0,.19.29.9,2.17.71,1.88.24,5.57.24,5.57h.76v22.26Z"/>
          <rect class="cls-13" x="93.83" y="381.16" width="68.58" height="2.17" transform="translate(256.23 764.48) rotate(180)"/>
          <rect class="cls-2" x="92.48" y="446.97" width="72.66" height="1.73" rx=".84" ry=".84"/>
          <path class="cls-16" d="M158.15,456.58c-.46.28-.99.43-1.53.43h-55.86c-.54,0-1.07-.15-1.53-.43l-3.76-2.26h66.44l-3.76,2.26Z"/>
          <rect class="cls-2" x="87.71" y="450.88" width="81.69" height="3.44" rx="1.66" ry="1.66"/>
          <rect class="cls-13" x="94.7" y="448.71" width="68.58" height="2.17"/>
          <path class="cls-16" d="M122.55,460.45h9.61s2.69,1.23,1.46,3.4c-1.24,2.17-6.26,4.27-6.26,4.27,0,0-5.02-2.1-6.26-4.27-1.24-2.17,1.46-3.4,1.46-3.4Z"/>
          <path class="cls-2" d="M113.58,457.01h27.33c.92,0,1.66.74,1.66,1.66v.12c0,.92-.74,1.66-1.66,1.66h-27.33c-.92,0-1.66-.74-1.66-1.66v-.12c0-.92.74-1.66,1.66-1.66Z" transform="translate(254.48 917.46) rotate(-180)"/>
          <rect class="cls-3" x="96.12" y="385.06" width="63.78" height="1.81" transform="translate(256.01 771.93) rotate(180)"/>
        </g>
      </g>
      <g>
        <path class="cls-2" d="M415.6,15.22v66.62h2.07V15.63c-.52-.1-1.04-.2-1.57-.31-.17-.04-.34-.07-.51-.1Z"/>
        <g>
          <rect class="cls-20" x="389.63" y="139.11" width="53.09" height="51.54"/>
          <rect class="cls-17" x="429.82" y="139.11" width="12.91" height="51.54" transform="translate(872.55 329.76) rotate(180)"/>
          <rect class="cls-14" x="389.63" y="139.11" width="12.18" height="51.54"/>
          <path class="cls-17" d="M416.62,80.94c3.07,0,5.56,2.47,5.56,5.52s-2.49,5.52-5.56,5.52-5.56-2.47-5.56-5.52,2.49-5.52,5.56-5.52ZM416.62,90.8c2.41,0,4.36-1.94,4.36-4.33s-1.95-4.33-4.36-4.33-4.36,1.94-4.36,4.33,1.95,4.33,4.36,4.33Z"/>
          <path class="cls-20" d="M394.18,130.71h44.73s8-5.96,4.36-14.44c-3.64-8.49-14.18-14.08-14.18-14.08h-25.09s-10.55,5.6-14.18,14.08,4.36,14.44,4.36,14.44Z"/>
          <rect class="cls-17" x="403.27" y="100.74" width="26.3" height="1.44" rx=".7" ry=".7" transform="translate(832.85 202.93) rotate(180)"/>
          <rect class="cls-20" x="386.18" y="137.66" width="60.49" height="1.44" rx=".7" ry=".7"/>
          <path class="cls-14" d="M407.67,99.63c.23-.14.49-.21.75-.21h15.58c.27,0,.53.07.75.21l1.85,1.11h-20.79l1.85-1.11Z"/>
          <path class="cls-12" d="M392,131.11c.38-.23.83-.35,1.28-.35h46.5c.45,0,.89.12,1.28.35l3.13,1.88h-55.31l3.13-1.88Z"/>
          <path class="cls-20" d="M412.18,94.2h8.15c1.4,0,2.54,1.13,2.54,2.52v.18c0,1.39-1.14,2.52-2.54,2.52h-8.15c-1.4,0-2.54-1.13-2.54-2.52v-.18c0-1.39,1.14-2.52,2.54-2.52Z"/>
          <rect class="cls-20" x="414.86" y="90.41" width="3.36" height="3.79"/>
          <path class="cls-17" d="M431.36,130.71h7.55s8-5.96,4.36-14.44c-3.64-8.49-14.18-14.08-14.18-14.08h-5.73c6.45,1.9,12.82,7.76,13,15.35.18,7.58-5,13.18-5,13.18Z"/>
          <path class="cls-14" d="M401.64,130.71h-7.55s-8-5.96-4.36-14.44,14.18-14.08,14.18-14.08h5.73c-6.45,1.9-12.82,7.76-13,15.35-.18,7.58,5,13.18,5,13.18Z"/>
          <rect class="cls-20" x="382.63" y="132.99" width="68" height="2.87" rx="1.39" ry="1.39"/>
          <path class="cls-14" d="M427.33,188.43h-23.15v-18.54h1.81s-1.1-3.07.58-4.63c1.68-1.56,2.13-1.81,2.13-1.81,0,0-3.61-3.73-2.26-8.43,1.35-4.69,9.32-11.25,9.32-11.25,0,0,7.96,6.56,9.32,11.25,1.35,4.69-2.26,8.43-2.26,8.43,0,0,.45.24,2.13,1.81,1.68,1.56.58,4.63.58,4.63h1.81v18.54Z"/>
          <path class="cls-12" d="M400.17,188.43h-8.11v-18.54h.63s-.38-3.07.2-4.63c.59-1.56.75-1.81.75-1.81,0,0-1.27-3.73-.79-8.43.47-4.69,3.27-11.25,3.27-11.25,0,0,2.79,6.56,3.27,11.25.47,4.69-.79,8.43-.79,8.43,0,0,.16.24.75,1.81.59,1.56.2,4.63.2,4.63h.63v18.54Z"/>
          <path class="cls-20" d="M440.17,188.43h-8.11v-18.54h.63s-.38-3.07.2-4.63c.59-1.56.75-1.81.75-1.81,0,0-1.27-3.73-.79-8.43.47-4.69,3.27-11.25,3.27-11.25,0,0,2.79,6.56,3.27,11.25.47,4.69-.79,8.43-.79,8.43,0,0,.16.24.75,1.81.59,1.56.2,4.63.2,4.63h.63v18.54Z"/>
          <rect class="cls-12" x="387.73" y="135.86" width="57.09" height="1.81"/>
          <path class="cls-20" d="M446.39,192.1h-59.08c-.39,0-.7-.31-.7-.7v-.05c0-.39.31-.7.7-.7h59.08c.39,0,.7.31.7.7v.05c0,.39-.31.7-.7.7Z"/>
          <path class="cls-14" d="M441.27,198.65c-.38.23-.83.35-1.28.35h-46.5c-.45,0-.89-.12-1.28-.35l-3.13-1.88h55.31l-3.13,1.88Z"/>
          <rect class="cls-20" x="382.63" y="193.9" width="68" height="2.86" rx="1.39" ry="1.39"/>
          <rect class="cls-12" x="388.45" y="192.1" width="57.09" height="1.81"/>
          <path class="cls-14" d="M411.64,201.87h8s2.24,1.02,1.21,2.83c-1.03,1.81-5.21,3.55-5.21,3.55,0,0-4.18-1.75-5.21-3.55-1.03-1.81,1.21-2.83,1.21-2.83Z"/>
          <path class="cls-20" d="M404.18,201.87h22.73c.77,0,1.39-.62,1.39-1.38v-.1c0-.76-.62-1.38-1.39-1.38h-22.73c-.77,0-1.39.62-1.39,1.38v.1c0,.76.62,1.38,1.39,1.38Z"/>
          <g class="cls-25">
            <rect class="cls-12" x="389.63" y="139.11" width="53.09" height="1.51"/>
          </g>
        </g>
      </g>
      <g>
        <polygon class="cls-17" points="487.3 586.77 491.13 580.04 494.96 586.77 501.97 590.45 494.96 594.13 491.13 600.86 487.3 594.13 480.29 590.45 487.3 586.77"/>
        <polygon class="cls-17" points="634.81 435.08 638.64 428.35 642.47 435.08 649.48 438.76 642.47 442.44 638.64 449.16 634.81 442.44 627.8 438.76 634.81 435.08"/>
        <polygon class="cls-17" points="507.65 66.38 511.48 59.65 515.31 66.38 522.32 70.06 515.31 73.74 511.48 80.46 507.65 73.74 500.64 70.06 507.65 66.38"/>
        <polygon class="cls-23" points="652.51 303.49 656.34 296.76 660.17 303.49 667.18 307.17 660.17 310.85 656.34 317.57 652.51 310.85 645.5 307.17 652.51 303.49"/>
        <polygon class="cls-17" points="290.08 692.02 293.92 685.29 297.75 692.02 304.76 695.7 297.75 699.38 293.92 706.11 290.08 699.38 283.08 695.7 290.08 692.02"/>
        <polygon class="cls-17" points="458.88 765.28 461.8 760.15 464.73 765.28 470.07 768.09 464.73 770.9 461.8 776.03 458.88 770.9 453.53 768.09 458.88 765.28"/>
        <polygon class="cls-17" points="665.25 541.37 667.94 536.65 670.63 541.37 675.55 543.95 670.63 546.54 667.94 551.25 665.25 546.54 660.34 543.95 665.25 541.37"/>
        <polygon class="cls-23" points="450.84 339.54 453.53 334.83 456.22 339.54 461.13 342.13 456.22 344.71 453.53 349.43 450.84 344.71 445.93 342.13 450.84 339.54"/>
        <polygon class="cls-17" points="625.11 84.16 627.8 79.44 630.49 84.16 635.4 86.74 630.49 89.32 627.8 94.04 625.11 89.32 620.19 86.74 625.11 84.16"/>
        <polygon class="cls-23" points="640.69 635.35 642.99 631.32 645.28 635.35 649.48 637.55 645.28 639.75 642.99 643.78 640.69 639.75 636.5 637.55 640.69 635.35"/>
        <polygon class="cls-17" points="274.38 263.85 276.68 259.83 278.97 263.85 283.17 266.06 278.97 268.26 276.68 272.29 274.38 268.26 270.19 266.06 274.38 263.85"/>
        <polygon class="cls-17" points="133.27 555.28 135.57 551.25 137.86 555.28 142.06 557.49 137.86 559.69 135.57 563.72 133.27 559.69 129.08 557.49 133.27 555.28"/>
        <polygon class="cls-23" points="177.71 280.89 180 276.86 182.3 280.89 186.49 283.09 182.3 285.3 180 289.32 177.71 285.3 173.51 283.09 177.71 280.89"/>
        <polygon class="cls-17" points="38.49 381.27 40.78 377.24 43.08 381.27 47.27 383.47 43.08 385.68 40.78 389.71 38.49 385.68 34.29 383.47 38.49 381.27"/>
        <polygon class="cls-17" points="707.04 689.88 709.34 685.85 711.63 689.88 715.83 692.08 711.63 694.29 709.34 698.32 707.04 694.29 702.85 692.08 707.04 689.88"/>
        <path class="cls-17" d="M474.71,248.37s34,25.57,30.43,25.8-63.24-50.22-63.24-50.22l32.81,24.43Z"/>
        <path class="cls-17" d="M661.4,720.13s34,25.57,30.43,25.8c-3.57.23-63.24-50.22-63.24-50.22l32.81,24.43Z"/>
        <path class="cls-17" d="M294.94,738.98s32.75,24.63,29.31,24.85c-3.44.22-60.91-48.37-60.91-48.37l31.6,23.53Z"/>
        <path class="cls-17" d="M610,165.88s39.75,29.89,35.58,30.16c-4.17.27-73.94-58.72-73.94-58.72l38.36,28.56Z"/>
      </g>
      <g>
        <g>
          <path class="cls-2" d="M685.72,351.33v1.02h2.58v-1.01c-.43-.08-.86-.12-1.31-.12s-.86.04-1.27.11Z"/>
          <g>
            <rect class="cls-20" x="653.31" y="425.07" width="66.26" height="65.45"/>
            <rect class="cls-17" x="703.46" y="425.07" width="16.11" height="65.45" transform="translate(1423.04 915.6) rotate(180)"/>
            <rect class="cls-14" x="653.31" y="425.07" width="15.2" height="65.45"/>
            <path class="cls-17" d="M685.72,351.33c.41-.07.84-.11,1.27-.11s.88.04,1.31.12c3.21.62,5.63,3.46,5.63,6.89,0,3.17-2.09,5.84-4.94,6.71-.63.19-1.31.3-2.01.3-.77,0-1.51-.12-2.19-.36-2.75-.92-4.75-3.55-4.75-6.65,0-3.43,2.44-6.29,5.67-6.89ZM684.8,363.26c.67.3,1.41.47,2.19.47.7,0,1.38-.14,2.01-.39,2.01-.81,3.44-2.8,3.44-5.12,0-3.04-2.44-5.5-5.45-5.5s-5.45,2.47-5.45,5.5c0,2.25,1.34,4.18,3.25,5.04Z"/>
            <path class="cls-20" d="M658.98,414.41h55.82s9.98-7.57,5.45-18.34c-4.54-10.77-17.7-17.88-17.7-17.88h-31.32s-13.16,7.11-17.7,17.88c-4.54,10.78,5.45,18.34,5.45,18.34Z"/>
            <path class="cls-17" d="M671.17,376.36h31.16c.46,0,.84.37.84.84v.16c0,.46-.37.84-.84.84h-31.16c-.46,0-.84-.37-.84-.84v-.16c0-.46.37-.84.84-.84Z" transform="translate(1373.49 754.55) rotate(180)"/>
            <rect class="cls-20" x="649" y="423.24" width="75.49" height="1.83" rx=".84" ry=".84"/>
            <path class="cls-14" d="M675.82,374.94c.28-.17.61-.27.94-.27h19.44c.33,0,.66.09.94.27l2.31,1.42h-25.95l2.31-1.42Z"/>
            <path class="cls-12" d="M656.26,414.92c.48-.29,1.03-.45,1.59-.45h58.04c.56,0,1.11.16,1.59.45l3.91,2.39h-69.03l3.91-2.39Z"/>
            <path class="cls-20" d="M681.32,368.05h10.43c1.68,0,3.04,1.35,3.04,3.02v.59c0,1.67-1.36,3.02-3.04,3.02h-10.43c-1.68,0-3.04-1.35-3.04-3.02v-.59c0-1.67,1.36-3.02,3.04-3.02Z"/>
            <rect class="cls-20" x="684.8" y="363.23" width="4.2" height="4.81"/>
            <path class="cls-17" d="M705.39,414.41h9.42s9.98-7.57,5.45-18.34c-4.54-10.77-17.7-17.88-17.7-17.88h-7.15c8.06,2.41,16,9.86,16.23,19.49.23,9.63-6.24,16.74-6.24,16.74Z"/>
            <path class="cls-14" d="M668.29,414.41h-9.42s-9.98-7.57-5.45-18.34c4.54-10.77,17.7-17.88,17.7-17.88h7.15c-8.06,2.41-16,9.86-16.23,19.49-.23,9.63,6.24,16.74,6.24,16.74Z"/>
            <path class="cls-20" d="M646.24,420.95h81.53c.92,0,1.67-.74,1.67-1.66v-.32c0-.92-.75-1.66-1.67-1.66h-81.53c-.92,0-1.67.74-1.67,1.66v.32c0,.92.75,1.66,1.67,1.66Z"/>
            <path class="cls-14" d="M700.36,487.71h-28.9v-23.54h2.25s-1.37-3.9.72-5.88,2.66-2.29,2.66-2.29c0,0-4.51-4.74-2.82-10.7,1.69-5.96,11.63-14.29,11.63-14.29,0,0,9.94,8.33,11.63,14.29s-2.82,10.7-2.82,10.7c0,0,.56.31,2.66,2.29s.72,5.88.72,5.88h2.25v23.54Z"/>
            <path class="cls-12" d="M666.46,487.71h-10.13v-23.54h.79s-.48-3.9.25-5.88c.73-1.99.93-2.29.93-2.29,0,0-1.58-4.74-.99-10.7s4.08-14.29,4.08-14.29c0,0,3.48,8.33,4.08,14.29.59,5.96-.99,10.7-.99,10.7,0,0,.2.31.93,2.29.73,1.99.25,5.88.25,5.88h.79v23.54Z"/>
            <path class="cls-20" d="M716.39,487.71h-10.13v-23.54h.79s-.48-3.9.25-5.88c.73-1.99.93-2.29.93-2.29,0,0-1.58-4.74-.99-10.7.59-5.96,4.08-14.29,4.08-14.29,0,0,3.48,8.33,4.08,14.29s-.99,10.7-.99,10.7c0,0,.2.31.93,2.29.73,1.99.25,5.88.25,5.88h.79v23.54Z"/>
            <rect class="cls-12" x="650.93" y="420.95" width="71.26" height="2.29"/>
            <path class="cls-20" d="M724.18,492.36h-73.81c-.46,0-.84-.37-.84-.84v-.16c0-.46.38-.84.84-.84h73.81c.46,0,.84.37.84.84v.16c0,.46-.38.84-.84.84Z"/>
            <path class="cls-14" d="M717.76,500.68c-.48.29-1.03.45-1.59.45h-58.04c-.56,0-1.11-.16-1.59-.45l-3.91-2.39h69.03l-3.91,2.39Z"/>
            <path class="cls-20" d="M727.78,494.65h-81.53c-.92,0-1.67.74-1.67,1.66v.32c0,.92.75,1.66,1.67,1.66h81.53c.92,0,1.67-.74,1.67-1.66v-.32c0-.92-.75-1.66-1.67-1.66Z"/>
            <rect class="cls-12" x="651.84" y="492.36" width="71.26" height="2.29"/>
            <path class="cls-14" d="M680.77,504.77h9.98s2.8,1.3,1.51,3.59c-1.29,2.29-6.51,4.51-6.51,4.51,0,0-5.22-2.22-6.51-4.51-1.29-2.29,1.51-3.59,1.51-3.59Z"/>
            <path class="cls-20" d="M671.4,504.77h28.51c.92,0,1.67-.74,1.67-1.66v-.32c0-.92-.75-1.66-1.67-1.66h-28.51c-.92,0-1.67.74-1.67,1.66v.32c0,.92.75,1.66,1.67,1.66Z"/>
            <g class="cls-25">
              <rect class="cls-12" x="653.31" y="425.07" width="66.26" height="1.92"/>
            </g>
          </g>
        </g>
        <path class="cls-2" d="M685.68,251.05v100.17h2.66v-99.56c-.67-.15-1.34-.3-2.01-.46-.22-.05-.44-.1-.65-.15Z"/>
      </g>
    </g>
  </g>
</svg>