<?xml version="1.0" encoding="UTF-8"?>
<svg id="Layer_2" data-name="Layer 2" xmlns="http://www.w3.org/2000/svg" xmlns:xlink="http://www.w3.org/1999/xlink" viewBox="0 0 5254.64 5254.64">
  <defs>
    <style>
      .cls-1 {
        fill: url(#linear-gradient-12);
      }

      .cls-1, .cls-2, .cls-3, .cls-4, .cls-5, .cls-6, .cls-7, .cls-8, .cls-9, .cls-10, .cls-11, .cls-12, .cls-13, .cls-14, .cls-15, .cls-16, .cls-17, .cls-18, .cls-19, .cls-20, .cls-21, .cls-22, .cls-23, .cls-24, .cls-25, .cls-26, .cls-27, .cls-28, .cls-29, .cls-30, .cls-31, .cls-32, .cls-33, .cls-34, .cls-35, .cls-36, .cls-37, .cls-38, .cls-39, .cls-40, .cls-41, .cls-42, .cls-43, .cls-44, .cls-45, .cls-46, .cls-47, .cls-48, .cls-49 {
        stroke-width: 0px;
      }

      .cls-2 {
        fill: url(#linear-gradient-17);
      }

      .cls-3 {
        fill: url(#linear-gradient-19);
      }

      .cls-4 {
        fill: url(#linear-gradient-33);
      }

      .cls-5 {
        fill: url(#linear-gradient);
      }

      .cls-6 {
        fill: url(#linear-gradient-21);
      }

      .cls-7 {
        fill: url(#linear-gradient-6);
      }

      .cls-8 {
        opacity: .19;
      }

      .cls-8, .cls-9, .cls-20, .cls-35 {
        fill: #0a0b0f;
      }

      .cls-9, .cls-39 {
        opacity: .36;
      }

      .cls-10 {
        fill: #e5e5e5;
      }

      .cls-11 {
        fill: url(#linear-gradient-15);
      }

      .cls-12 {
        fill: url(#linear-gradient-11);
      }

      .cls-13 {
        fill: url(#linear-gradient-5);
      }

      .cls-14 {
        fill: url(#linear-gradient-31);
      }

      .cls-15 {
        fill: url(#linear-gradient-34);
      }

      .cls-16 {
        opacity: .21;
      }

      .cls-16, .cls-23 {
        fill: #fff;
      }

      .cls-17 {
        fill: url(#linear-gradient-13);
      }

      .cls-18 {
        fill: url(#linear-gradient-23);
      }

      .cls-19 {
        fill: url(#linear-gradient-25);
      }

      .cls-20 {
        opacity: .09;
      }

      .cls-21 {
        fill: url(#linear-gradient-16);
      }

      .cls-22 {
        fill: url(#linear-gradient-22);
      }

      .cls-23 {
        opacity: .28;
      }

      .cls-24 {
        fill: url(#linear-gradient-35);
      }

      .cls-25 {
        fill: url(#linear-gradient-32);
      }

      .cls-26 {
        fill: url(#linear-gradient-20);
      }

      .cls-27 {
        fill: url(#linear-gradient-14);
      }

      .cls-28 {
        fill: url(#linear-gradient-2);
      }

      .cls-29, .cls-35 {
        opacity: .13;
      }

      .cls-29, .cls-43 {
        fill: #d6d6d6;
      }

      .cls-30 {
        opacity: .11;
      }

      .cls-31 {
        fill: url(#linear-gradient-7);
      }

      .cls-32 {
        fill: url(#linear-gradient-3);
      }

      .cls-33 {
        fill: url(#linear-gradient-9);
      }

      .cls-34 {
        fill: url(#linear-gradient-27);
      }

      .cls-36 {
        fill: #14110e;
        opacity: .22;
      }

      .cls-37 {
        fill: url(#linear-gradient-36);
      }

      .cls-38 {
        fill: url(#linear-gradient-8);
      }

      .cls-39 {
        fill: #eaeaea;
      }

      .cls-40 {
        fill: url(#linear-gradient-24);
      }

      .cls-41 {
        fill: url(#linear-gradient-26);
      }

      .cls-42 {
        fill: url(#linear-gradient-18);
      }

      .cls-44 {
        fill: url(#linear-gradient-30);
      }

      .cls-45 {
        fill: url(#linear-gradient-29);
      }

      .cls-46 {
        fill: url(#linear-gradient-28);
      }

      .cls-47 {
        fill: url(#linear-gradient-10);
      }

      .cls-48 {
        fill: url(#linear-gradient-4);
      }

      .cls-49 {
        fill: #15214c;
      }
    </style>
    <linearGradient id="linear-gradient" x1="3554.68" y1="4007.76" x2="4074.26" y2="4007.76" gradientUnits="userSpaceOnUse">
      <stop offset="0" stop-color="#ff8900"/>
      <stop offset="1" stop-color="#e7c700"/>
    </linearGradient>
    <linearGradient id="linear-gradient-2" y1="3368.42" x2="4074.21" y2="3368.42" xlink:href="#linear-gradient"/>
    <linearGradient id="linear-gradient-3" x1="3554.68" y1="3600.99" x2="4074.21" y2="3600.99" gradientUnits="userSpaceOnUse">
      <stop offset="0" stop-color="#00ff10"/>
      <stop offset="0" stop-color="#031b89"/>
      <stop offset="1" stop-color="#1e1cb0"/>
    </linearGradient>
    <linearGradient id="linear-gradient-4" x1="3008.28" y1="1730.29" x2="3070.56" y2="1730.29" xlink:href="#linear-gradient-3"/>
    <linearGradient id="linear-gradient-5" x1="2526.6" y1="3529.28" x2="3554.32" y2="3529.28" xlink:href="#linear-gradient"/>
    <linearGradient id="linear-gradient-6" x1="2526.6" y1="2209.29" x2="3554.32" y2="2209.29" xlink:href="#linear-gradient"/>
    <linearGradient id="linear-gradient-7" x1="2680.26" y1="3503.41" x2="3554.32" y2="3503.41" xlink:href="#linear-gradient"/>
    <linearGradient id="linear-gradient-8" x1="2680.26" y1="2184.81" x2="3554.32" y2="2184.81" xlink:href="#linear-gradient"/>
    <linearGradient id="linear-gradient-9" x1="2526.62" y1="2669.37" x2="3554.32" y2="2669.37" xlink:href="#linear-gradient-3"/>
    <linearGradient id="linear-gradient-10" x1="2732.11" y1="1419.5" x2="3348.86" y2="1419.5" xlink:href="#linear-gradient"/>
    <linearGradient id="linear-gradient-11" x1="1686.16" y1="3708.43" x2="2547.04" y2="3708.43" xlink:href="#linear-gradient"/>
    <linearGradient id="linear-gradient-12" x1="1686.2" y1="2868.04" x2="2547.04" y2="2868.04" xlink:href="#linear-gradient"/>
    <linearGradient id="linear-gradient-13" x1="1686.2" y1="3253.42" x2="2547.04" y2="3253.42" xlink:href="#linear-gradient-3"/>
    <linearGradient id="linear-gradient-14" x1="6180.49" y1="4018.25" x2="863.95" y2="2553.72" gradientUnits="userSpaceOnUse">
      <stop offset="0" stop-color="#e20e9a"/>
      <stop offset="0" stop-color="#ffab5e"/>
      <stop offset="1" stop-color="#ffe900"/>
    </linearGradient>
    <linearGradient id="linear-gradient-15" x1="1597.39" y1="2436.42" x2="1794.43" y2="2436.42" gradientUnits="userSpaceOnUse">
      <stop offset="0" stop-color="#9a95bb"/>
      <stop offset="0" stop-color="#f4d0b5"/>
      <stop offset="1" stop-color="#ffe4b5"/>
    </linearGradient>
    <linearGradient id="linear-gradient-16" x1="1165.77" y1="2292.55" x2="1873.97" y2="3491.28" gradientUnits="userSpaceOnUse">
      <stop offset="0" stop-color="#9a95bb"/>
      <stop offset="0" stop-color="#29cdb2"/>
      <stop offset="1" stop-color="#73ff8d"/>
    </linearGradient>
    <linearGradient id="linear-gradient-17" x1="800.45" y1="4345.32" x2="1104.76" y2="1046.55" xlink:href="#linear-gradient-16"/>
    <linearGradient id="linear-gradient-18" x1="796.34" y1="2246.32" x2="947.26" y2="2246.32" xlink:href="#linear-gradient-15"/>
    <linearGradient id="linear-gradient-19" x1="726.45" y1="1974.71" x2="1042.62" y2="1974.71" xlink:href="#linear-gradient-15"/>
    <linearGradient id="linear-gradient-20" x1="697.61" y1="1988.28" x2="800.83" y2="1988.28" gradientUnits="userSpaceOnUse">
      <stop offset="0" stop-color="#ffe4b5"/>
      <stop offset="1" stop-color="#f4d0b5"/>
      <stop offset="1" stop-color="#9a95bb"/>
    </linearGradient>
    <linearGradient id="linear-gradient-21" x1="826.89" y1="2894.35" x2="1044.16" y2="2894.35" xlink:href="#linear-gradient-15"/>
    <linearGradient id="linear-gradient-22" x1="245.55" y1="2287.95" x2="1076.38" y2="3796.32" xlink:href="#linear-gradient-16"/>
    <linearGradient id="linear-gradient-23" x1="4468.8" y1="1304.49" x2="4498.25" y2="1304.49" xlink:href="#linear-gradient-3"/>
    <linearGradient id="linear-gradient-24" x1="5031.63" y1="1828.67" x2="3558.58" y2="2669.15" xlink:href="#linear-gradient-14"/>
    <linearGradient id="linear-gradient-25" x1="2399.54" y1="701.35" x2="2428.99" y2="701.35" xlink:href="#linear-gradient-3"/>
    <linearGradient id="linear-gradient-26" x1="2962.36" y1="1368.38" x2="1489.31" y2="2208.86" xlink:href="#linear-gradient-14"/>
    <linearGradient id="linear-gradient-27" x1="2939.75" y1="1393.54" x2="1609.12" y2="2152.76" xlink:href="#linear-gradient-14"/>
    <linearGradient id="linear-gradient-28" x1="3809.86" y1="690.46" x2="3834.26" y2="690.46" xlink:href="#linear-gradient-3"/>
    <linearGradient id="linear-gradient-29" x1="4276.61" y1="1077.98" x2="3054.94" y2="1775.03" xlink:href="#linear-gradient-14"/>
    <linearGradient id="linear-gradient-30" x1="4257.85" y1="1098.85" x2="3154.3" y2="1728.5" xlink:href="#linear-gradient-14"/>
    <linearGradient id="linear-gradient-31" x1="4435.8" y1="3622.34" x2="4644.61" y2="3622.34" xlink:href="#linear-gradient"/>
    <linearGradient id="linear-gradient-32" x1="4682.63" y1="2814.51" x2="4891.45" y2="2814.51" xlink:href="#linear-gradient"/>
    <linearGradient id="linear-gradient-33" x1="3751.15" y1="2404.98" x2="3893.11" y2="2404.98" xlink:href="#linear-gradient"/>
    <linearGradient id="linear-gradient-34" x1="2116.79" y1="2300.26" x2="2258.75" y2="2300.26" xlink:href="#linear-gradient"/>
    <linearGradient id="linear-gradient-35" x1="1974.67" y1="1043.64" x2="2116.63" y2="1043.64" xlink:href="#linear-gradient"/>
    <linearGradient id="linear-gradient-36" x1="3369.67" y1="1077.3" x2="3511.64" y2="1077.3" xlink:href="#linear-gradient"/>
  </defs>
  <g id="Layer_1-2" data-name="Layer 1">
    <g>
      <path class="cls-39" d="M5254.64,2627.32c0,630.19-221.88,1208.61-591.86,1661.28l-8.96,10.96c-364.53,441.14-870.27,761.35-1448.04,891.21-.08.04-.16.08-.24.04-186.03,41.79-379.56,63.83-578.21,63.83-310.63,0-608.6-53.89-885.14-152.87-.08.04-.12,0-.16-.04-203.87-72.91-396.09-170.35-573.12-288.76-18.61-12.42-37.07-25.09-55.32-37.96-10.71-7.58-21.39-15.23-31.93-22.97-67.05-48.84-131.69-100.77-193.69-155.6-23.05-20.37-45.74-41.14-68.07-62.32-79.76-75.6-154.79-156.17-224.52-241.22-.16-.12-.24-.24-.33-.41-6.93-8.35-13.73-16.78-20.49-25.26-16.91-21.1-33.44-42.49-49.69-64.11-17.07-22.69-33.73-45.7-50.06-68.96-19.31-27.5-38.09-55.4-56.29-83.67-1.67-2.53-3.3-5.05-4.89-7.58v-.04C151.77,3634.29,0,3148.55,0,2627.32,0,1573.66,620.29,664.81,1515.62,246.11c9.78-4.56,19.59-9.08,29.45-13.56,264.4-119.68,552.1-196.82,854.47-222.81,9.78-.86,19.63-1.63,29.45-2.36,65.46-4.89,131.61-7.37,198.33-7.37,128.07,0,254.01,9.17,377.19,26.88,5.95.86,11.89,1.71,17.84,2.61,279.35,42.12,544.28,128.23,787.5,251.08,8.15,4.11,16.29,8.27,24.4,12.46,93.93,48.68,184.56,102.85,271.45,162.12,10.96,7.41,21.83,14.95,32.63,22.57,117.64,82.85,228.15,175.11,330.47,275.64,9.9,9.74,19.71,19.51,29.45,29.41,467.74,474.38,756.38,1125.76,756.38,1844.54Z"/>
      <g>
        <path class="cls-43" d="M1545.07,232.55v1317.57h-29.45V246.11c9.78-4.56,19.59-9.08,29.45-13.56Z"/>
        <path class="cls-43" d="M1706.13,2046.57c-15.6,6.13-31.9,10.82-48.76,13.98-16.21,3.02-32.88,4.64-50.01,4.64-149.93,0-271.54-121.56-271.54-271.54s121.61-271.54,271.54-271.54h.84c34.55.09,67.56,6.73,97.93,18.62-116.69,25.07-204.17,128.76-204.17,252.92s87.48,227.9,204.17,252.92Z"/>
        <path class="cls-43" d="M1706.13,2046.57c-15.6,6.13-31.9,10.82-48.76,13.98-149.42-.56-270.48-121.93-270.48-271.54,0-132.8,95.37-243.31,221.3-266.9,34.55.09,67.56,6.73,97.93,18.62-116.69,25.07-204.17,128.76-204.17,252.92s87.48,227.9,204.17,252.92Z"/>
        <path class="cls-29" d="M1657.37,2060.55c-16.21,3.02-32.88,4.64-50.01,4.64-149.93,0-271.54-121.56-271.54-271.54s121.61-271.54,271.54-271.54h.84c-125.93,23.59-221.3,134.1-221.3,266.9,0,149.61,121.05,270.99,270.48,271.54Z"/>
      </g>
      <g>
        <path class="cls-5" d="M4074.26,3552.71v878.79c-133.18,19.43-269.34,30.08-407.43,31.18-8.13.09-16.3.14-24.43.14-26.31,0-52.58-.23-78.9-.96-2.85-.23-5.97-.23-8.82-.46v-908.68h519.58Z"/>
        <path class="cls-28" d="M4074.21,3488.87v63.79h-519.53v-63.79c0-168.26,259.79-304.7,259.79-304.7,0,0,10.61,5.6,27.55,15.89,66.86,40.6,232.19,154.58,232.19,288.81Z"/>
        <rect class="cls-32" x="3554.68" y="3552.66" width="519.53" height="96.67"/>
        <path class="cls-35" d="M3618.61,4461.85c16.07.46,32.15.69,48.22.83-8.13.09-16.3.14-24.43.14-26.31,0-52.58-.23-78.9-.96-2.85-.23-5.97-.23-8.82-.46v-908.68h55.11v908.68c2.85.23,5.97.23,8.82.46Z"/>
        <rect class="cls-35" x="4074.21" y="3552.71" width=".05" height="96.62"/>
        <path class="cls-35" d="M3842.02,3200.06c-66.86,40.6-232.23,154.58-232.23,288.81v63.79h-55.11v-63.79c0-168.26,259.79-304.7,259.79-304.7,0,0,10.61,5.6,27.55,15.89Z"/>
        <rect class="cls-35" x="3554.68" y="3552.66" width="55.11" height="96.67"/>
        <rect class="cls-35" x="4074.21" y="3552.71" width=".05" height="96.62"/>
        <rect class="cls-35" x="4074.21" y="3552.71" width=".05" height="96.62"/>
        <rect class="cls-48" x="3008.28" y="1576.26" width="62.28" height="308.06"/>
        <path class="cls-13" d="M3554.32,2573.76v1911.05c-2.85-.23-5.97-.23-8.82-.46-302.04-8.63-592.55-62.82-865.24-155.86-51.89-17.73-103.1-36.83-153.66-57.31v-1697.41h1027.72Z"/>
        <path class="cls-7" d="M3554.32,2447.61v126.15h-1027.72v-126.15c0-332.9,513.88-602.79,513.88-602.79,0,0,1.79.96,5.19,2.8,53.87,29.39,508.65,286.79,508.65,599.99Z"/>
        <path class="cls-31" d="M3554.32,2522v1962.8c-2.85-.23-5.97-.23-8.82-.46-302.04-8.63-592.55-62.82-865.24-155.86v-1806.48h874.06Z"/>
        <path class="cls-38" d="M3554.32,2447.61v74.4h-874.06v-139.19c0-219.47,202.48-414.14,365.41-535.19,53.87,29.39,508.65,286.79,508.65,599.99Z"/>
        <rect class="cls-33" x="2526.62" y="2573.77" width="1027.71" height="191.2"/>
        <path class="cls-35" d="M2680.26,2573.76v1754.73c-51.89-17.73-103.1-36.83-153.66-57.31v-1697.41h153.66Z"/>
        <path class="cls-35" d="M3045.67,1847.62c-162.94,121.05-365.41,315.72-365.41,535.19v190.95h-153.66v-126.15c0-332.9,513.88-602.79,513.88-602.79,0,0,1.79.96,5.19,2.8Z"/>
        <polygon class="cls-47" points="3194.64 1500.58 3231.06 1712.79 3040.48 1612.59 2849.9 1712.79 2886.27 1500.58 2732.11 1350.27 2945.19 1319.32 2946.2 1317.25 3040.48 1126.21 3135.04 1317.85 3135.77 1319.32 3348.86 1350.27 3194.64 1500.58"/>
        <path class="cls-12" d="M2547.04,3173.43v1070.01c-47.9-19.61-95.2-40.41-141.81-62.46-263.46-124.31-505.43-286.74-719.07-479.85v-527.7h860.88Z"/>
        <path class="cls-1" d="M2547.04,3067.66v105.67h-860.83v-105.67c0-278.85,430.39-504.93,430.39-504.93,0,0,8.36,4.41,22.73,12.72,88.82,51.3,407.71,252.21,407.71,492.21Z"/>
        <rect class="cls-17" x="1686.2" y="3173.33" width="860.83" height="160.18"/>
        <path class="cls-35" d="M2405.22,4180.98c-263.46-124.31-505.43-286.74-719.07-479.85v-527.7h79.54v160.09h-.04v399.95c192.92,174.37,407.57,325.18,639.57,447.52Z"/>
        <path class="cls-35" d="M2139.33,2575.46c-131.62,85.1-373.63,270.76-373.63,486.14v111.73h-79.49v-105.67c0-278.85,430.39-504.93,430.39-504.93,0,0,8.36,4.41,22.73,12.72Z"/>
        <rect class="cls-35" x="1686.2" y="3173.33" width="79.49" height="160.18"/>
        <rect class="cls-35" x="1765.65" y="3173.75" width=".04" height="159.77"/>
        <path class="cls-27" d="M4662.78,4288.6l-8.96,10.96c-364.53,441.14-870.27,761.35-1448.04,891.21-.08.04-.16.08-.24.04-186.03,41.79-379.56,63.83-578.21,63.83-310.63,0-608.6-53.89-885.14-152.87-.08.04-.12,0-.16-.04-203.63-85.83-393.57-197.72-565.63-331.53-9.65-7.5-19.23-15.03-28.76-22.69-10.96-8.76-21.79-17.6-32.59-26.56-82.04-67.98-159.68-141.06-232.47-218.82-.28-.33-.61-.65-.9-.98-1.06-1.1-2.08-2.2-3.14-3.3v-.04c-16.9-18.13-33.52-36.5-49.9-55.15-40.86-46.52-80-94.54-117.35-144.03h-.04c-.04-.08-.12-.16-.16-.24-17.35-22.93-34.3-46.19-50.88-69.78-2.2-3.1-4.36-6.19-6.52-9.33-16.78-24.11-33.16-48.51-49.12-73.24-11.81-18.25-23.34-36.7-34.66-55.28-28.47-46.72-55.44-94.42-80.9-143.1-15.11-28.88-29.65-58.13-43.67-87.66-1.51-3.22-3.01-6.44-4.52-9.65-151.65-323.47-236.38-684.53-236.38-1065.39,0-1034.51,625.14-1922.91,1518.26-2308.37-46.64,65.01-90.31,132.34-130.75,201.84-215.81,370.88-339.47,802-339.47,1262.05,0,287.38,48.23,563.47,137.03,820.66,27.45,79.47,58.78,157.15,93.73,232.79,57.96,125.38,125.95,245.18,202.94,358.33,25.5,37.47,52.02,74.26,79.47,110.27,205.54,269.74,464.44,496.62,760.94,664.94,6.8,3.87,13.6,7.7,20.45,11.49,43.63,24.24,88.07,47.21,133.24,68.88,268.39,128.72,563.22,211.16,874.06,237.03.12,0,.24.04.37.04,18.29,1.51,36.66,2.85,55.07,3.95,51.53,3.18,103.5,4.77,155.85,4.77,62.24,0,123.95-2.28,185.05-6.76.2,0,.45-.04.65-.04,229.94-16.78,451.29-64.6,659.8-139.1,17.31-6.19,34.54-12.55,51.65-19.1Z"/>
        <path class="cls-30" d="M3205.53,5190.81c-186.03,41.79-379.56,63.83-578.21,63.83-310.63,0-608.6-53.89-885.14-152.87-.08.04-.12,0-.16-.04-203.63-85.83-393.57-197.72-565.63-331.53-9.65-7.5-19.23-15.03-28.76-22.69-10.96-8.76-21.79-17.6-32.59-26.56-82.04-67.98-159.68-141.06-232.47-218.82-.28-.33-.61-.65-.9-.98-1.06-1.1-2.08-2.2-3.14-3.3v-.04c-16.9-18.13-33.52-36.5-49.9-55.15-40.86-46.52-80-94.54-117.35-144.03h-.04c-.04-.08-.12-.16-.16-.24-17.35-22.93-34.3-46.19-50.88-69.78-2.2-3.1-4.36-6.19-6.52-9.33-16.78-24.11-33.16-48.51-49.12-73.24-11.81-18.25-23.34-36.7-34.66-55.28-28.47-46.72-55.44-94.42-80.9-143.1-15.11-28.88-29.65-58.13-43.67-87.66-1.51-3.22-3.01-6.44-4.52-9.65-151.65-323.47-236.38-684.53-236.38-1065.39,0-1034.51,625.14-1922.91,1518.26-2308.37-46.64,65.01-90.31,132.34-130.75,201.84-356.99,271.65-639.11,636.67-809.91,1058.63-30.71,75.89-57.84,153.57-81.1,232.96v.04c-.73,2.44-1.47,4.89-2.16,7.33,0,0-.04,0,0,.04-1.02,3.46-2.04,6.88-3.01,10.39-26.64,93.2-48.03,188.6-63.79,285.91-1.75,10.71-3.42,21.43-5.01,32.22-18.17,121.83-27.58,246.52-27.58,373.41,0,11.65.08,23.3.24,34.91.16,13.85.49,27.66.9,41.43,1.18,39.19,3.22,78.17,6.19,116.86,4.68,61.67,11.57,122.73,20.65,183.06,30.63,204.08,85.79,400.13,162.45,585.06,3.02,7.29,6.07,14.58,9.17,21.83,26.56,62.4,55.56,123.54,86.89,183.22l.08.08v.04c7.45,14.26,15.07,28.39,22.81,42.44,64.48,117.35,138.05,228.96,219.8,333.93,5.25,6.72,10.51,13.4,15.8,20.04,10.71,13.52,21.63,26.93,32.63,40.2.29.33.53.65.81.98,460.98,555.4,1156.55,909.09,1934.77,909.09,31.12,0,62.12-.57,92.95-1.71Z"/>
        <path class="cls-10" d="M4662.78,4288.6c-17.11,6.56-34.34,12.91-51.65,19.1,14.3-2.61,28.51-5.34,42.69-8.15l8.96-10.96Z"/>
      </g>
      <g>
        <path class="cls-49" d="M1144.21,3640.65l-5.5,204.52-7.58,281.84-2.57,95.19-.57,21.18-1.26,46.76-.04.65-11.65,430.15-.77,28.84-.69,25.21c-10.71-7.58-21.39-15.23-31.93-22.97-67.05-48.84-131.69-100.77-193.69-155.6l-9.41-98.58v-.04l-9.94-104.52-8.76-91.85-5.21-54.99-3.54-37.07-.08-.2-52.02-546.69-2.08-21.83h347.29Z"/>
        <path class="cls-49" d="M905.55,3640.65l-19.51,204.2-.08.94v.04l-.65,6.68-18.82,195.68-7.54,78.9-7.86,82.28-2.2,22.08v.08l-1.38,14.58-5.3,55.24v.04l-13.56,141.26-8.76,91.45c-79.76-75.6-154.79-156.17-224.52-241.22-.16-.12-.24-.24-.33-.41-6.93-8.35-13.73-16.78-20.49-25.26l-1.39-53.52-3.26-122.93-11.85-450.11h347.5Z"/>
        <path class="cls-49" d="M1168.89,4812.96l7.49-42.77,4.36-24.97-33.12,2.28-33.36,2.28-32.63,2.24c10.55,7.74,21.22,15.4,31.94,22.97l55.32,37.96Z"/>
        <polygon class="cls-9" points="919.32 3640.66 882.38 4506.95 868.6 4393.28 848.9 4231.53 848.9 4231.44 850.99 4209.18 858.93 4127.08 866.5 4048.17 905.55 3640.66 919.32 3640.66"/>
        <path class="cls-11" d="M1597.39,2499.34s2.12-90.32,22.82-97.22c20.7-6.9,41.41,0,41.41,0,0,0,34.5-89.71,96.61-75.91,62.11,13.8,50.76,160.79-85.03,221.86l-75.8-48.73Z"/>
        <path class="cls-21" d="M1695.11,2554.8s-6.48,22.53-18.52,58.02c-33.57,98.34-109.38,296.76-205.99,394.64-12.22,12.32-24.81,23.08-37.59,31.84-14.41,9.85-29.01,16.06-43.52,19.16-48.26,10.31-96.43-13.5-138.66-48.72-78-64.95-135.47-168.95-135.47-168.95l-1.82-100.62-7.75-438.89,17.52,7.3s174.7,285.99,238.28,492.44l184.92-264.1,37.4-53.55,111.2,71.43Z"/>
        <path class="cls-8" d="M1389.5,3058.46c-48.26,10.31-96.43-13.5-138.66-48.72-78-64.95-135.47-168.95-135.47-168.95l-1.82-100.62c84.38,155.36,146.05,270.76,275.96,318.29Z"/>
        <path class="cls-2" d="M1242.9,4251.9c0,13.56-24.44,23.91-65.09,31.53-14.95,2.85-32.14,5.3-51.12,7.37-63.71,7.13-147.5,10.35-235.56,10.63-10.39.04-20.82.04-31.28,0h-4.56c-4.36-.04-8.72-.08-13.08-.08-43.99-.37-88.35-1.38-131.12-2.97-40.65-1.51-79.88-3.5-116.05-5.91-6.93-8.35-13.73-16.78-20.49-25.26-16.91-21.1-33.44-42.49-49.69-64.11-17.07-22.69-33.73-45.7-50.06-68.96-19.31-27.5-38.09-55.4-56.29-83.67,7.78-56.95,16.99-121.96,26.84-190.47,37.6-260.9,85.13-573.2,102.97-689.7,4.56-29.86,7.17-46.84,7.17-46.84v-826.04l76.5-23.71,153.85-47.74h150.92s2.32.98,6.48,2.77c33.28,14.22,184.12,78.86,184.12,81.92v217.11c0,30.51,5.3,131.69,12.79,261.14,1.87,32.06,3.87,65.87,5.95,100.77v.04c5.13,86.68,10.8,180.04,16.29,270.31,13.52,222.94,80.53,1056.14,80.53,1091.86Z"/>
        <path class="cls-42" d="M947.26,2265.64s0,43.34-32.79,63.14v21.02c0,12.63-10.18,22.81-22.77,22.81s-22.81-10.18-22.81-22.81v-11.57c-65.13-4.48-72.55-72.59-72.55-72.59l7.41-141.63,127.62-3.99,15.89,145.62Z"/>
        <path class="cls-36" d="M941.49,2213.45c-15.73,5.4-65.05,16.04-119.38-35.19-66-62.19,108.73-22.48,108.73-22.48l7.07,24.78,3.57,32.88Z"/>
        <path class="cls-49" d="M1029.06,2027.3l-32.43-223.41,58.52-8.49c7.12,38.2,22.19,194.37-26.08,231.9Z"/>
        <path class="cls-3" d="M743.62,2084.2s51.52,137.4,188.92,103.05c137.4-34.35,120.22-343.49,85.87-412.19-34.35-68.7-291.97,68.7-291.97,188.92s17.17,120.22,17.17,120.22Z"/>
        <path class="cls-49" d="M760.8,1878.1s361.41,94.78,340.75-159.19c-3.02-37.12-42.68-59.67-76.25-43.54-50.32,24.17-132.89,53.23-250.5,62.28-41.57,3.2-122.66,57.24-89.95,204.44,37.99,170.98,58.78,142.12,58.78,142.12l17.17-206.1Z"/>
        <circle class="cls-26" cx="749.22" cy="1988.28" r="51.61"/>
        <polygon class="cls-8" points="551.41 2801.04 618.06 2681.07 555.38 2947.98 551.41 2801.04"/>
        <path class="cls-6" d="M826.89,2988.49v-110.88c32.64-17.63,108.18-54.72,136.61-37.57,25.65-23.99,56.07-47.81,73.23-37.25,29.15,17.87-24.86,174.9-209.84,185.7Z"/>
        <path class="cls-20" d="M548.31,3170.3l-59.31,777.36-14.22,186.48c-19.31-27.5-38.09-55.4-56.29-83.67-1.67-2.53-3.3-5.05-4.89-7.58v-.04c7.9-57.8,17.23-123.46,27.21-192.51,47.05-325.99,108.76-726.85,108.76-726.85v-5.01c2.12-4.56,3.22-6.92,3.22-6.92l-4.48,58.74Z"/>
        <path class="cls-20" d="M1236.96,4251.9c0,12.95-22.4,23.01-59.96,30.55-14.62,2.93-31.49,5.5-50.27,7.7-62.97,7.37-146.93,10.84-235.6,11.28-10.39.04-20.82.04-31.28,0h-.24c-.69.04-1.39.04-2.08,0h-2.24c-4.36,0-8.72-.04-13.08-.04-43.87-.33-88.11-1.26-130.92-2.77h-.04c-40.49-1.47-79.63-3.38-115.89-5.74-.16-.12-.24-.24-.33-.41-6.93-8.35-13.73-16.78-20.49-25.26-16.91-21.1-33.44-42.49-49.69-64.11,13.6,3.26,29.73,6.88,48.31,10.59,6.92,1.43,14.18,2.81,21.79,4.24l9.61-71.89,39.43-295.56,9.69,368.8.2,8.39c2.08.33,4.2.61,6.31.94,52.26,7.45,114.83,14.01,187.29,17.52,1.06.08,2.12.12,3.18.16,1.3.08,2.61.12,3.95.16,12.63.57,25.54,1.06,38.78,1.43,5.25.16,10.55.28,15.93.41l35.72-233.57,26.84,234.01c48.8-.2,100.86-1.83,156.09-5.34,5.42-.37,10.88-.73,16.37-1.14,29.69-2.04,60.29-4.64,91.77-7.86.57,9.08.81,15.11.81,17.52Z"/>
        <path class="cls-22" d="M670.55,2586.59l-158.85,285.93h325.65v119.14s-24.54,9.13-63.54,21.76c-76.17,24.7-207.38,63.06-317.7,73.55-33.28,3.18-63.14,1.27-89.27-4.53-104.76-23.03-150.59-108.26-125.18-178.15,2.22-6.12,5.24-14.14,8.9-23.83,49.01-128.99,219.61-550.26,300.87-579.81l16.76-5.16c81.77-23.23,177.73,121.92,102.38,291.1Z"/>
      </g>
      <ellipse class="cls-23" cx="3187.41" cy="2162.96" rx="42.77" ry="61.1" transform="translate(-595.87 2887.35) rotate(-45)"/>
      <ellipse class="cls-16" cx="3276.29" cy="2251.84" rx="29.95" ry="42.79" transform="translate(-632.69 2976.24) rotate(-45)"/>
      <ellipse class="cls-23" cx="3852.7" cy="3314.86" rx="26.67" ry="38.11" transform="translate(-1221.32 3021.64) rotate(-37.4)"/>
      <ellipse class="cls-16" cx="3900.32" cy="3377.14" rx="18.68" ry="26.69" transform="translate(-1249.35 3063.37) rotate(-37.4)"/>
      <ellipse class="cls-23" cx="2407.81" cy="2845.45" rx="42.48" ry="60.68" transform="translate(-1233.26 2047.51) rotate(-37.4)"/>
      <ellipse class="cls-16" cx="2483.65" cy="2944.63" rx="29.75" ry="42.5" transform="translate(-1277.91 2113.96) rotate(-37.4)"/>
      <g>
        <path class="cls-18" d="M4498.25,782.78v1072.84h-29.45V753.37c9.9,9.74,19.71,19.51,29.45,29.41Z"/>
        <path class="cls-40" d="M4659.31,2352.08c-15.6,6.13-31.9,10.82-48.76,13.98-16.21,3.02-32.88,4.64-50.01,4.64-149.93,0-271.54-121.56-271.54-271.54s121.61-271.54,271.54-271.54h.84c34.55.09,67.56,6.73,97.93,18.62-116.69,25.07-204.17,128.76-204.17,252.92s87.48,227.9,204.17,252.92Z"/>
        <path class="cls-35" d="M4610.56,2366.05c-16.21,3.02-32.88,4.64-50.01,4.64-149.93,0-271.54-121.56-271.54-271.54s121.61-271.54,271.54-271.54h.84c-125.93,23.59-221.3,134.1-221.3,266.9,0,149.61,121.05,270.99,270.48,271.54Z"/>
      </g>
      <g>
        <path class="cls-43" d="M4138.33,477.72v2189.23h-32.63V455.16c10.96,7.41,21.83,14.95,32.63,22.57Z"/>
        <path class="cls-43" d="M4317.02,3217.67c-17.31,6.8-35.39,12-54.08,15.5-17.98,3.35-36.47,5.15-55.47,5.15-166.32,0-301.22-134.85-301.22-301.22s134.9-301.22,301.22-301.22h.93c38.32.1,74.94,7.47,108.63,20.65-129.44,27.81-226.48,142.83-226.48,280.56s97.04,252.8,226.48,280.56Z"/>
        <path class="cls-43" d="M4317.02,3217.67c-17.31,6.8-35.39,12-54.08,15.5-165.75-.62-300.03-135.26-300.03-301.22,0-147.31,105.8-269.9,245.49-296.07,38.32.1,74.94,7.47,108.63,20.65-129.44,27.81-226.48,142.83-226.48,280.56s97.04,252.8,226.48,280.56Z"/>
        <path class="cls-29" d="M4262.93,3233.17c-17.98,3.35-36.47,5.15-55.47,5.15-166.32,0-301.22-134.85-301.22-301.22s134.9-301.22,301.22-301.22h.93c-139.69,26.17-245.49,148.75-245.49,296.07,0,165.96,134.28,300.6,300.03,301.22Z"/>
      </g>
      <g>
        <path class="cls-19" d="M2428.99,7.37v1387.96h-29.45V9.74c9.78-.86,19.63-1.63,29.45-2.36Z"/>
        <path class="cls-41" d="M2590.05,1891.79c-15.6,6.13-31.9,10.82-48.76,13.98-16.21,3.02-32.88,4.64-50.01,4.64-149.93,0-271.54-121.56-271.54-271.54s121.61-271.54,271.54-271.54h.84c34.55.09,67.56,6.73,97.93,18.62-116.69,25.07-204.17,128.76-204.17,252.92s87.48,227.9,204.17,252.92Z"/>
        <path class="cls-34" d="M2590.05,1891.79c-15.6,6.13-31.9,10.82-48.76,13.98-149.42-.56-270.48-121.93-270.48-271.54,0-132.8,95.37-243.31,221.3-266.9,34.55.09,67.56,6.73,97.93,18.62-116.69,25.07-204.17,128.76-204.17,252.92s87.48,227.9,204.17,252.92Z"/>
        <path class="cls-35" d="M2541.29,1905.76c-16.21,3.02-32.88,4.64-50.01,4.64-149.93,0-271.54-121.56-271.54-271.54s121.61-271.54,271.54-271.54h.84c-125.93,23.59-221.3,134.1-221.3,266.9,0,149.61,121.05,270.99,270.48,271.54Z"/>
      </g>
      <g>
        <path class="cls-46" d="M3834.26,293.04v807.3h-24.4V280.57c8.15,4.11,16.29,8.27,24.4,12.46Z"/>
        <path class="cls-45" d="M3967.83,1512.07c-12.94,5.08-26.46,8.97-40.43,11.59-13.44,2.5-27.26,3.85-41.47,3.85-124.35,0-225.2-100.82-225.2-225.2s100.86-225.2,225.2-225.2h.69c28.65.08,56.03,5.58,81.22,15.44-96.77,20.8-169.33,106.79-169.33,209.76s72.55,189,169.33,209.76Z"/>
        <path class="cls-44" d="M3967.83,1512.07c-12.94,5.08-26.46,8.97-40.43,11.59-123.92-.46-224.32-101.13-224.32-225.2,0-110.14,79.1-201.79,183.54-221.35,28.65.08,56.03,5.58,81.22,15.44-96.77,20.8-169.33,106.79-169.33,209.76s72.55,189,169.33,209.76Z"/>
        <path class="cls-35" d="M3927.4,1523.66c-13.44,2.5-27.26,3.85-41.47,3.85-124.35,0-225.2-100.82-225.2-225.2s100.86-225.2,225.2-225.2h.69c-104.44,19.56-183.54,111.21-183.54,221.35,0,124.08,100.39,224.74,224.32,225.2Z"/>
      </g>
      <g>
        <path class="cls-43" d="M3022.35,29.49v528.76h-17.84V26.88c5.95.86,11.89,1.71,17.84,2.61Z"/>
        <path class="cls-43" d="M3120.2,859.75c-9.47,3.72-19.37,6.57-29.61,8.49-9.84,1.83-19.97,2.82-30.37,2.82-91.06,0-164.91-73.83-164.91-164.91s73.85-164.91,164.91-164.91h.51c20.98.06,41.03,4.09,59.47,11.31-70.87,15.23-123.99,78.2-123.99,153.6s53.13,138.4,123.99,153.6Z"/>
        <path class="cls-43" d="M3120.2,859.75c-9.47,3.72-19.37,6.57-29.61,8.49-90.75-.34-164.26-74.05-164.26-164.91,0-80.65,57.92-147.77,134.4-162.09,20.98.06,41.03,4.09,59.47,11.31-70.87,15.23-123.99,78.2-123.99,153.6s53.13,138.4,123.99,153.6Z"/>
        <path class="cls-29" d="M3090.59,868.24c-9.84,1.83-19.97,2.82-30.37,2.82-91.06,0-164.91-73.83-164.91-164.91s73.85-164.91,164.91-164.91h.51c-76.48,14.33-134.4,81.44-134.4,162.09,0,90.86,73.52,164.57,164.26,164.91Z"/>
      </g>
      <polygon class="cls-14" points="4592.4 3649.79 4604.73 3721.63 4540.2 3687.71 4475.68 3721.63 4487.99 3649.79 4435.8 3598.9 4507.94 3588.42 4508.28 3587.72 4540.2 3523.04 4572.22 3587.92 4572.46 3588.42 4644.61 3598.9 4592.4 3649.79"/>
      <polygon class="cls-25" points="4839.23 2841.96 4851.56 2913.8 4787.04 2879.88 4722.51 2913.8 4734.83 2841.96 4682.63 2791.07 4754.78 2780.59 4755.12 2779.89 4787.04 2715.21 4819.05 2780.09 4819.3 2780.59 4891.45 2791.07 4839.23 2841.96"/>
      <polygon class="cls-4" points="3857.62 2423.64 3866 2472.49 3822.13 2449.42 3778.26 2472.49 3786.64 2423.64 3751.15 2389.05 3800.2 2381.92 3800.43 2381.45 3822.13 2337.47 3843.9 2381.58 3844.06 2381.92 3893.11 2389.05 3857.62 2423.64"/>
      <polygon class="cls-15" points="2223.26 2318.92 2231.64 2367.77 2187.77 2344.71 2143.9 2367.77 2152.28 2318.92 2116.79 2284.33 2165.84 2277.2 2166.07 2276.73 2187.77 2232.75 2209.54 2276.86 2209.7 2277.2 2258.75 2284.33 2223.26 2318.92"/>
      <polygon class="cls-24" points="2081.14 1062.3 2089.52 1111.15 2045.65 1088.08 2001.78 1111.15 2010.16 1062.3 1974.67 1027.7 2023.72 1020.58 2023.95 1020.1 2045.65 976.13 2067.42 1020.24 2067.59 1020.58 2116.63 1027.7 2081.14 1062.3"/>
      <polygon class="cls-37" points="3476.14 1095.96 3484.52 1144.8 3440.66 1121.74 3396.79 1144.8 3405.16 1095.96 3369.67 1061.36 3418.72 1054.24 3418.95 1053.76 3440.66 1009.79 3462.42 1053.9 3462.59 1054.24 3511.64 1061.36 3476.14 1095.96"/>
    </g>
  </g>
</svg>