<svg class="logo-bg" xmlns="http://www.w3.org/2000/svg" viewBox="0 0 184.15 191.11">
                  <g>
                    <path d="M93.08,191.11c-0.33,0-0.67,0-1,0c-5.44-8.58-13.89-13.21-22.85-16.97c-9.31-3.91-17.25-9.39-22.27-18.33
                  c-1.76-3.14-3.91-4.36-7.49-4.54C27.15,150.68,20,144.64,17,132.6c-0.51-2.04-1.41-3.36-3.43-3.73c-5.72-1.05-9.92-4.41-13.5-8.75
                  C0.08,81.49,0.12,42.87,0,4.25C-0.01,1.13,0.22-0.01,3.93,0c58.76,0.16,117.53,0.16,176.29,0c3.71-0.01,3.94,1.13,3.93,4.25
                  c-0.12,38.29-0.08,76.58-0.08,114.86c-3.3,4.84-7.56,8.35-13.42,9.66c-2.18,0.49-3.38,1.86-3.81,4.08
                  c-2.43,12.48-11.13,17.35-22.76,18.52c-2.09,0.21-4,0.61-5.04,2.62c-5.68,11.04-15.46,16.87-26.43,21.58
                  C104.81,178.91,97.44,183.23,93.08,191.11z"></path>
                  </g>
                </svg>