<?xml version="1.0" encoding="UTF-8"?>
<svg id="Layer_2" data-name="Layer 2" xmlns="http://www.w3.org/2000/svg" xmlns:xlink="http://www.w3.org/1999/xlink" viewBox="0 0 559.32 535.14">
  <defs>
    <style>
      .cls-1 {
        fill: #feece6;
      }

      .cls-1, .cls-2, .cls-3, .cls-4, .cls-5, .cls-6, .cls-7, .cls-8, .cls-9, .cls-10, .cls-11, .cls-12, .cls-13, .cls-14, .cls-15 {
        stroke-width: 0px;
      }

      .cls-2 {
        fill: #5e53a3;
      }

      .cls-3 {
        fill: url(#linear-gradient);
      }

      .cls-4 {
        opacity: .34;
      }

      .cls-4, .cls-6, .cls-11, .cls-15 {
        fill: #1a224d;
      }

      .cls-5 {
        fill: #fff;
        opacity: .11;
      }

      .cls-16 {
        clip-path: url(#clippath-2);
      }

      .cls-7 {
        fill: #198e76;
      }

      .cls-8 {
        fill: none;
      }

      .cls-17 {
        clip-path: url(#clippath-1);
      }

      .cls-18 {
        opacity: .54;
      }

      .cls-19 {
        opacity: .48;
      }

      .cls-20 {
        opacity: .47;
      }

      .cls-9 {
        fill: url(#linear-gradient-2);
      }

      .cls-10 {
        fill: url(#linear-gradient-3);
      }

      .cls-11 {
        opacity: .39;
      }

      .cls-12 {
        fill: #c78534;
      }

      .cls-13 {
        fill: #b6be34;
      }

      .cls-21 {
        clip-path: url(#clippath);
      }

      .cls-22 {
        clip-path: url(#clippath-3);
      }

      .cls-23 {
        opacity: .36;
      }

      .cls-14 {
        fill: #0c0b0e;
      }

      .cls-15 {
        opacity: .46;
      }
    </style>
    <clipPath id="clippath">
      <rect class="cls-8" x="17.09" y="197.2" width="99.01" height="311.46" transform="translate(133.19 705.86) rotate(180)"/>
    </clipPath>
    <linearGradient id="linear-gradient" x1="67.9" y1="152.26" x2="67.9" y2="192.98" gradientUnits="userSpaceOnUse">
      <stop offset="0" stop-color="#b6be34"/>
      <stop offset=".23" stop-color="#85af48"/>
      <stop offset=".47" stop-color="#57a05b"/>
      <stop offset=".7" stop-color="#35966a"/>
      <stop offset=".88" stop-color="#209072"/>
      <stop offset="1" stop-color="#198e76"/>
    </linearGradient>
    <clipPath id="clippath-1">
      <path class="cls-8" d="M112.33,118.37s11-50.19-41.6-66.69c0,0-4.13-4.47-3.44-11.34,0,0-2.41,10.66-5.5,11.34,0,0-46.07,9.97-37.47,66.69h88.01Z"/>
    </clipPath>
    <linearGradient id="linear-gradient-2" x1="280.46" y1="340.95" x2="280.46" y2="497.73" gradientUnits="userSpaceOnUse">
      <stop offset="0" stop-color="#b6be34"/>
      <stop offset=".32" stop-color="#7fad4b"/>
      <stop offset=".79" stop-color="#359669"/>
      <stop offset="1" stop-color="#198e76"/>
    </linearGradient>
    <clipPath id="clippath-2">
      <path class="cls-8" d="M153.27,273.87s-13.06-107.95,118.95-145.76c0,0,10.31-7.56,9.28-19.25h5.16s-2.06,13.06,12.38,19.25c0,0,130.64,44,112.07,154.02l-257.84-8.25Z"/>
    </clipPath>
    <linearGradient id="linear-gradient-3" x1="494.19" y1="155.41" x2="494.19" y2="196.13" xlink:href="#linear-gradient"/>
    <clipPath id="clippath-3">
      <path class="cls-8" d="M450.18,121.19s-11-50.19,41.6-66.69c0,0,4.13-4.47,3.44-11.34,0,0,2.41,10.66,5.5,11.34,0,0,46.07,9.97,37.47,66.69h-88.01Z"/>
    </clipPath>
  </defs>
  <g id="Graphics">
    <g>
      <rect class="cls-2" x="445.83" y="186.28" width="99.01" height="311.46"/>
      <rect class="cls-2" x="17.24" y="183.13" width="99.01" height="311.46"/>
      <g class="cls-21">
        <path class="cls-5" d="M-57.28,188.08c-.13,6.37-.26,12.75-.39,19.12-.28,6.41-.57,12.82-.86,19.23-.67,16.54-.95,33.09-1.19,49.64-.44,30.01-.66,60.02-.76,90.03-.19,60.1.14,120.19.86,180.29-.24,3.37,1.32,4.79,4.65,4.27,5.88-2.37,10.8-6.11,14.76-11.24,8.27-8.31,16.19-16.95,23.77-25.9,4.76-4.39,8.07-9.61,9.93-15.67-.5-59.81-.65-119.63-.22-179.45.19-26.54.4-53.09.93-79.63.32-16.23.72-32.46,1.9-48.66.29-6.04.87-12.05,1.73-18.03,1.17-8.62,1.97-17.28,2.41-25.98.58-3.31-.81-4.89-4.16-4.75-6.05,1.67-11.3,4.82-15.76,9.44-9.04,7.28-17.76,14.93-26.18,22.92-5.17,3.81-8.98,8.6-11.44,14.37Z"/>
      </g>
      <rect class="cls-12" x="23.89" y="118.04" width="88.01" height="69.44" transform="translate(135.79 305.52) rotate(180)"/>
      <path class="cls-1" d="M104.42,176.23c0-8.92-.03-17.84.01-26.76.03-5.52.45-14.81-6.1-16.8-1.95-.59-3.35-2.43-3.84-4.45-.07-.28-.46-.3-.55-.02-.37,1.18-.86,2.38-1.66,3.31-.74.86-1.64,1.11-2.57,1.65-.89.52-1.64,1.33-2.23,2.18-1.95,2.78-2.58,6.35-2.69,9.72-.33,10.37,0,20.8-.02,31.18,0,.16.13.3.29.3h19.08c.16,0,.29-.13.29-.3Z"/>
      <path class="cls-1" d="M50.45,176.23c0-8.92-.03-17.84.01-26.76.03-5.52.45-14.81-6.1-16.8-1.95-.59-3.35-2.43-3.84-4.45-.07-.28-.46-.3-.55-.02-.37,1.18-.86,2.38-1.66,3.31-.74.86-1.64,1.11-2.57,1.65-.89.52-1.64,1.33-2.23,2.18-1.95,2.78-2.58,6.35-2.69,9.72-.33,10.37,0,20.8-.02,31.18,0,.16.13.3.29.3h19.08c.16,0,.29-.13.29-.3Z"/>
      <path class="cls-1" d="M76.74,176.23c0-8.92-.03-17.84.01-26.76.03-5.52.45-14.81-6.1-16.8-1.95-.59-3.35-2.43-3.84-4.45-.07-.28-.46-.3-.55-.02-.37,1.18-.86,2.38-1.66,3.31-.74.86-1.64,1.11-2.57,1.65-.89.52-1.64,1.33-2.23,2.18-1.95,2.78-2.58,6.35-2.69,9.72-.33,10.37,0,20.8-.02,31.18,0,.16.13.3.29.3h19.08c.16,0,.29-.13.29-.3Z"/>
      <path class="cls-4" d="M53.15,422.5c-15.29-37.95-4.89-80.93-8.62-121.67-3.57-39.08-20.29-76.71-21.58-115.61h-4.62v311.46h92.75c-21.05-23.8-46.14-44.9-57.94-74.18Z"/>
      <path class="cls-3" d="M122.14,192.98s-1.98-24.75,2.83-35.75c0,0-5.65-8.25-9.89,4.81,0,0-6.22-22-12.15,0,0,0-5.93-18.56-11.87,0,0,0-5.37-16.5-11.87-.69,0,0-7.35-16.5-13.28,0,0,0-7.63-15.13-13,0,0,0-5.37-14.44-12.43-.69,0,0-6.22-18.56-11.87,0,0,0-5.65-15.13-9.89,0,0,0-2.54-8.25-7.91-5.5,0,0,2.83-2.9,2.54,17.46l-.28,20.36h109.05Z"/>
      <path class="cls-7" d="M111.9,118.04s11-50.19-41.6-66.69c0,0-4.13-4.47-3.44-11.34,0,0-2.41,10.66-5.5,11.34,0,0-46.07,9.97-37.47,66.69h88.01Z"/>
      <g class="cls-18">
        <g class="cls-17">
          <path class="cls-1" d="M93.66,35.34c-22.61,17.49-45.21,34.97-67.82,52.46-3.29,2.54-6.58,5.09-9.86,7.63-1.27.98.51,2.74,1.77,1.77,22.61-17.49,45.21-34.97,67.82-52.46,3.29-2.54,6.58-5.09,9.86-7.63,1.27-.98-.51-2.74-1.77-1.77h0Z"/>
          <path class="cls-1" d="M118.46,46.98c-35.92,26.93-71.84,53.87-107.76,80.8-5.12,3.84-10.23,7.67-15.35,11.51-1.27.95-.03,3.13,1.26,2.16,35.92-26.93,71.84-53.87,107.76-80.8l15.35-11.51c1.27-.95.03-3.13-1.26-2.16h0Z"/>
          <path class="cls-1" d="M136.37,60.34c-37.25,31.42-74.5,62.83-111.74,94.25-5.22,4.41-10.45,8.81-15.67,13.22-1.23,1.04.54,2.8,1.77,1.77,37.25-31.42,74.5-62.83,111.74-94.25,5.22-4.41,10.45-8.81,15.67-13.22,1.23-1.04-.54-2.8-1.77-1.77h0Z"/>
          <path class="cls-1" d="M-25.3,58.18c33.59,27.77,67.18,55.55,100.76,83.32,4.69,3.88,9.39,7.76,14.08,11.64,1.23,1.02,3.01-.74,1.77-1.77C57.72,123.61,24.14,95.83-9.45,68.06c-4.69-3.88-9.39-7.76-14.08-11.64-1.23-1.02-3.01.74-1.77,1.77h0Z"/>
          <path class="cls-1" d="M8.95,46.7c35.5,32.02,71,64.05,106.5,96.07,5,4.51,9.99,9.02,14.99,13.52,1.19,1.08,2.97-.69,1.77-1.77C96.71,122.5,61.21,90.48,25.71,58.45c-5-4.51-9.99-9.02-14.99-13.52-1.19-1.08-2.97.69-1.77,1.77h0Z"/>
          <path class="cls-1" d="M39.69,38.24c29.41,23.52,58.81,47.03,88.22,70.55,4.22,3.38,8.45,6.76,12.67,10.13,1.24,1,3.02-.76,1.77-1.77-29.41-23.52-58.81-47.03-88.22-70.55-4.22-3.38-8.45-6.76-12.67-10.13-1.24-1-3.02.76-1.77,1.77h0Z"/>
        </g>
      </g>
      <polygon class="cls-13" points="116.25 121.48 19.42 121.48 12.89 112.88 120.84 112.88 116.25 121.48"/>
      <polygon class="cls-12" points="64.58 38.97 65.92 0 68.26 38.97 64.58 38.97"/>
      <path class="cls-11" d="M65.7,45.81s1.33,5-3.21,8.22c-1.54,1.09-3.02,2.26-4.35,3.59-7.42,7.42-25.64,29-17.68,55.26h-17.33s-5.74-32.39,17.33-50.5c0,0,8.13-7.7,20.79-11.03,0,0,2.88-2.67,4.46-5.54Z"/>
      <circle class="cls-13" cx="66.45" cy="40" r="7.97" transform="translate(4.07 86.09) rotate(-67.5)"/>
      <path class="cls-1" d="M110.65,250.59c0-8.32-.04-16.65.01-24.97.03-5.15.46-13.82-6.24-15.67-2-.55-3.42-2.27-3.93-4.16-.07-.27-.47-.28-.56-.02-.38,1.1-.88,2.22-1.7,3.09-.76.8-1.68,1.03-2.63,1.54-.91.49-1.67,1.24-2.28,2.03-1.99,2.6-2.64,5.92-2.75,9.07-.34,9.67,0,19.41-.02,29.09,0,.15.13.28.29.28h19.5c.16,0,.29-.12.29-.28Z"/>
      <path class="cls-6" d="M88.74,253.58h23.63c1.5,0,2.71-1.21,2.71-2.71h0c0-1.5-1.21-2.71-2.71-2.71h-23.63c-1.5,0-2.71,1.21-2.71,2.71h0c0,1.5,1.21,2.71,2.71,2.71Z"/>
      <rect class="cls-13" x="10.83" y="187.48" width="114.14" height="9.72" rx="4.86" ry="4.86" transform="translate(135.79 384.68) rotate(-180)"/>
      <path class="cls-1" d="M76.69,250.43c0-8.32-.04-16.65.01-24.97.03-5.15.46-13.82-6.24-15.67-1.99-.55-3.42-2.27-3.93-4.16-.07-.27-.47-.28-.56-.02-.38,1.1-.88,2.22-1.7,3.09-.76.8-1.68,1.03-2.63,1.54-.91.49-1.67,1.24-2.28,2.03-1.99,2.6-2.64,5.92-2.75,9.07-.34,9.67,0,19.41-.02,29.09,0,.15.13.28.29.28h19.5c.16,0,.29-.12.29-.28Z"/>
      <path class="cls-6" d="M54.78,253.42h23.63c1.5,0,2.71-1.21,2.71-2.71h0c0-1.5-1.21-2.71-2.71-2.71h-23.63c-1.5,0-2.71,1.21-2.71,2.71h0c0,1.5,1.21,2.71,2.71,2.71Z"/>
      <path class="cls-1" d="M43.04,250.59c0-8.32-.04-16.65.01-24.97.03-5.15.46-13.82-6.24-15.67-1.99-.55-3.42-2.27-3.93-4.16-.07-.27-.47-.28-.56-.02-.38,1.1-.88,2.22-1.7,3.09-.76.8-1.68,1.03-2.63,1.54-.91.49-1.67,1.24-2.28,2.03-1.99,2.6-2.64,5.92-2.75,9.07-.34,9.67,0,19.41-.02,29.09,0,.15.13.28.29.28h19.5c.16,0,.29-.12.29-.28Z"/>
      <path class="cls-6" d="M21.13,253.58h23.63c1.5,0,2.71-1.21,2.71-2.71h0c0-1.5-1.21-2.71-2.71-2.71h-23.63c-1.5,0-2.71,1.21-2.71,2.71h0c0,1.5,1.21,2.71,2.71,2.71Z"/>
      <rect class="cls-9" x="78.29" y="340.95" width="404.33" height="156.78"/>
      <path class="cls-6" d="M215.85,492.47h132.03s8.48-81.81-21.39-82.68c0,0-.25-11.25-.25-11.25,0-.21,3.26-2.36,3.56-2.65,2.18-2.17,3.73-4.87,3.77-8.02.16-12.15-14.8-19-23.91-23.56-9.04-4.52-18.09-9.02-27.2-13.39-2.13-1.02-16.69,7.12-19.54,8.33-7.07,2.99-14.09,6.15-20.63,10.2-11.48,7.1-18.47,19.57-5.21,29.52l.22,10.82s-31.78-4.99-21.43,82.68Z"/>
      <path class="cls-6" d="M368.42,492.47h109.01s7-81.81-17.66-82.68c0,0-.21-11.25-.21-11.25,0-.21,2.69-2.36,2.94-2.65,1.8-2.17,3.08-4.87,3.11-8.02.13-12.15-12.22-19-19.74-23.56-7.46-4.52-14.94-9.02-22.46-13.39-1.76-1.02-13.78,7.12-16.14,8.33-5.83,2.99-11.64,6.15-17.03,10.2-9.48,7.1-15.25,19.57-4.3,29.52l.18,10.82s-26.24-4.99-17.69,82.68Z"/>
      <path class="cls-6" d="M87.36,492.47h109.01s7-81.81-17.66-82.68c0,0-.21-11.25-.21-11.25,0-.21,2.69-2.36,2.94-2.65,1.8-2.17,3.08-4.87,3.11-8.02.13-12.15-12.22-19-19.74-23.56-7.46-4.52-14.94-9.02-22.46-13.39-1.76-1.02-13.78,7.12-16.14,8.33-5.83,2.99-11.64,6.15-17.03,10.2-9.48,7.1-15.25,19.57-4.3,29.52l.18,10.82s-26.24-4.99-17.69,82.68Z"/>
      <path class="cls-1" d="M256.87,502.26c0-22.47.08-44.94-.03-67.42-.07-13.91-1.07-37.29,14.56-42.31,4.65-1.49,7.98-6.12,9.16-11.22.17-.72,1.09-.75,1.3-.05.89,2.96,2.04,5.99,3.96,8.34,1.77,2.17,3.92,2.78,6.13,4.15,2.13,1.31,3.91,3.34,5.33,5.49,4.65,7.01,6.15,15.99,6.41,24.48.79,26.11,0,52.4.04,78.53,0,.41-.31.75-.69.75h-45.49c-.38,0-.69-.34-.69-.75Z"/>
      <path class="cls-1" d="M402.28,502.26c0-22.47.07-44.94-.02-67.42-.06-13.91-.88-37.29,12.02-42.31,3.84-1.49,6.59-6.12,7.57-11.22.14-.72.9-.75,1.08-.05.73,2.96,1.69,5.99,3.27,8.34,1.46,2.17,3.24,2.78,5.06,4.15,1.76,1.31,3.23,3.34,4.4,5.49,3.84,7.01,5.08,15.99,5.29,24.48.66,26.11,0,52.4.03,78.53,0,.41-.25.75-.57.75h-37.56c-.31,0-.57-.34-.57-.75Z"/>
      <path class="cls-1" d="M121.22,502.26c0-22.47.07-44.94-.02-67.42-.06-13.91-.88-37.29,12.02-42.31,3.84-1.49,6.59-6.12,7.57-11.22.14-.72.9-.75,1.08-.05.73,2.96,1.69,5.99,3.27,8.34,1.46,2.17,3.24,2.78,5.06,4.15,1.76,1.31,3.23,3.34,4.4,5.49,3.84,7.01,5.08,15.99,5.29,24.48.66,26.11,0,52.4.03,78.53,0,.41-.25.75-.57.75h-37.56c-.31,0-.57-.34-.57-.75Z"/>
      <rect class="cls-12" x="0" y="492.47" width="559.32" height="21.09" rx="10.54" ry="10.54"/>
      <polygon class="cls-12" points="83.02 326.77 148.34 306.83 413.74 306.83 479.75 330.89 83.02 326.77"/>
      <polygon class="cls-6" points="78.29 340.95 482.62 340.95 490.75 326.77 67.9 326.77 78.29 340.95"/>
      <path class="cls-7" d="M151.09,274.51s-13.06-107.95,118.95-145.76c0,0,10.31-7.56,9.28-19.25h5.16s-2.06,13.06,12.38,19.25c0,0,130.64,44,112.07,154.02l-257.84-8.25Z"/>
      <g class="cls-23">
        <path class="cls-6" d="M298.38,128.11c-.54-.23-1.05-.48-1.54-.72,12.08,23.83,18.6,50.4,17.25,77-1.35,26.64-11.09,53.06-27.69,73.77l124.05,3.97c18.56-110.01-112.07-154.02-112.07-154.02Z"/>
        <path class="cls-6" d="M285.99,108.9s0-.05,0-.05h-.04s.02.03.03.05Z"/>
      </g>
      <g class="cls-19">
        <g class="cls-16">
          <path class="cls-1" d="M323.96,105.49c-21.6,16.9-43.2,33.81-64.8,50.71-34.4,26.92-68.8,53.84-103.19,80.76-7.86,6.15-15.72,12.3-23.57,18.45-1.9,1.49.77,4.12,2.65,2.65,21.6-16.9,43.2-33.81,64.8-50.71,34.4-26.92,68.8-53.84,103.19-80.76,7.86-6.15,15.72-12.3,23.57-18.45,1.9-1.49-.77-4.12-2.65-2.65h0Z"/>
          <path class="cls-1" d="M358.22,126.67c-22.52,19.22-45.04,38.43-67.56,57.65-35.73,30.49-71.46,60.97-107.19,91.46-8.2,7-16.41,14-24.61,21-1.84,1.57.82,4.21,2.65,2.65,22.52-19.22,45.04-38.43,67.56-57.65,35.73-30.49,71.46-60.97,107.19-91.46,8.2-7,16.41-14,24.61-21,1.84-1.57-.82-4.21-2.65-2.65h0Z"/>
          <path class="cls-1" d="M387.66,160.39c-17.95,15.68-35.89,31.35-53.84,47.03-28.62,25-57.25,50-85.87,75.01-6.59,5.76-13.19,11.52-19.78,17.28-1.82,1.59.84,4.23,2.65,2.65,17.95-15.68,35.89-31.35,53.84-47.03,28.62-25,57.25-50,85.87-75.01,6.59-5.76,13.19-11.52,19.78-17.28,1.82-1.59-.84-4.23-2.65-2.65h0Z"/>
          <path class="cls-1" d="M417.92,199.02c-32.45,29.4-64.9,58.81-97.36,88.21-4.59,4.16-9.18,8.32-13.77,12.48-1.79,1.62.87,4.27,2.65,2.65,32.45-29.4,64.9-58.8,97.36-88.21,4.59-4.16,9.18-8.32,13.77-12.48,1.79-1.62-.87-4.27-2.65-2.65h0Z"/>
          <path class="cls-1" d="M229,119.85c21.37,8.18,42.74,16.35,64.11,24.53,34.06,13.03,68.12,26.06,102.18,39.09,7.82,2.99,15.63,5.98,23.45,8.97,2.26.86,3.23-2.76,1-3.62-21.37-8.18-42.74-16.35-64.11-24.53-34.06-13.03-68.12-26.06-102.18-39.09-7.82-2.99-15.63-5.98-23.45-8.97-2.26-.86-3.23,2.76-1,3.62h0Z"/>
          <path class="cls-1" d="M196.78,142.97c25.97,10.19,51.95,20.38,77.92,30.57,41.21,16.17,82.41,32.33,123.62,48.5,9.47,3.72,18.94,7.43,28.42,11.15,2.25.88,3.22-2.74,1-3.62-25.97-10.19-51.95-20.38-77.92-30.57-41.21-16.17-82.41-32.33-123.62-48.5-9.47-3.72-18.94-7.43-28.42-11.15-2.25-.88-3.22,2.74-1,3.62h0Z"/>
          <path class="cls-1" d="M169.86,168.13c28.14,11.61,56.28,23.22,84.43,34.84,44.51,18.37,89.03,36.74,133.54,55.1,10.3,4.25,20.61,8.5,30.91,12.76,2.23.92,3.2-2.71,1-3.62-28.14-11.61-56.28-23.22-84.43-34.84-44.51-18.37-89.03-36.74-133.54-55.1-10.3-4.25-20.61-8.5-30.91-12.76-2.23-.92-3.2,2.71-1,3.62h0Z"/>
          <path class="cls-1" d="M139.73,192.25c27.36,12.13,54.73,24.26,82.09,36.4,43.44,19.26,86.87,38.52,130.31,57.77,10,4.43,20,8.87,30,13.3,2.19.97,4.1-2.26,1.89-3.24-27.36-12.13-54.73-24.26-82.09-36.4-43.44-19.26-86.87-38.52-130.31-57.77-10-4.43-20-8.87-30-13.3-2.19-.97-4.1,2.26-1.89,3.24h0Z"/>
          <path class="cls-1" d="M132.77,232.99l68.22,29.65c36.06,15.67,72.11,31.35,108.17,47.02,8.29,3.6,16.58,7.21,24.88,10.81,2.19.95,4.1-2.28,1.89-3.24-22.74-9.88-45.48-19.77-68.22-29.65-36.06-15.67-72.11-31.35-108.17-47.02-8.29-3.6-16.58-7.21-24.88-10.81-2.19-.95-4.1,2.28-1.89,3.24h0Z"/>
        </g>
      </g>
      <path class="cls-6" d="M148.34,306.83s4.81-24.75-6.88-35.75c0,0,13.75-8.25,24.06,4.81,0,0,15.13-22,29.57,0,0,0,14.44-18.56,28.88,0,0,0,13.06-16.5,28.88-.69,0,0,17.88-16.5,32.32,0,0,0,18.56-15.13,31.63,0,0,0,13.06-14.44,30.25-.69,0,0,15.13-18.56,28.88,0,0,0,13.75-15.13,24.07,0,0,0,6.19-8.25,19.25-5.5,0,0-6.88-2.9-6.19,17.46l.69,20.36H148.34Z"/>
      <circle class="cls-12" cx="282.23" cy="120.33" r="13.51"/>
      <rect class="cls-12" x="450.18" y="121.19" width="88.01" height="69.44"/>
      <path class="cls-1" d="M457.66,179.38c0-8.92.03-17.84-.01-26.76-.03-5.52-.45-14.81,6.1-16.8,1.95-.59,3.35-2.43,3.84-4.45.07-.28.46-.3.55-.02.37,1.18.86,2.38,1.66,3.31.74.86,1.64,1.11,2.57,1.65.89.52,1.64,1.33,2.23,2.18,1.95,2.78,2.58,6.35,2.69,9.72.33,10.37,0,20.8.02,31.18,0,.16-.13.3-.29.3h-19.08c-.16,0-.29-.13-.29-.3Z"/>
      <path class="cls-1" d="M511.63,179.38c0-8.92.03-17.84-.01-26.76-.03-5.52-.45-14.81,6.1-16.8,1.95-.59,3.35-2.43,3.84-4.45.07-.28.46-.3.55-.02.37,1.18.86,2.38,1.66,3.31.74.86,1.64,1.11,2.57,1.65.89.52,1.64,1.33,2.23,2.18,1.95,2.78,2.58,6.35,2.69,9.72.33,10.37,0,20.8.02,31.18,0,.16-.13.3-.29.3h-19.08c-.16,0-.29-.13-.29-.3Z"/>
      <path class="cls-1" d="M485.34,179.38c0-8.92.03-17.84-.01-26.76-.03-5.52-.45-14.81,6.1-16.8,1.95-.59,3.35-2.43,3.84-4.45.07-.28.46-.3.55-.02.37,1.18.86,2.38,1.66,3.31.74.86,1.64,1.11,2.57,1.65.89.52,1.64,1.33,2.23,2.18,1.95,2.78,2.58,6.35,2.69,9.72.33,10.37,0,20.8.02,31.18,0,.16-.13.3-.29.3h-19.08c-.16,0-.29-.13-.29-.3Z"/>
      <path class="cls-4" d="M450.94,492.99h92.75V181.53h-4.62c-1.29,38.9-18.01,76.52-21.58,115.61-3.72,40.75,6.68,83.72-8.62,121.67-11.8,29.27-36.89,50.38-57.94,74.18Z"/>
      <path class="cls-10" d="M439.94,196.13s1.98-24.75-2.83-35.75c0,0,5.65-8.25,9.89,4.81,0,0,6.22-22,12.15,0,0,0,5.93-18.56,11.87,0,0,0,5.37-16.5,11.87-.69,0,0,7.35-16.5,13.28,0,0,0,7.63-15.13,13,0,0,0,5.37-14.44,12.43-.69,0,0,6.22-18.56,11.87,0,0,0,5.65-15.13,9.89,0,0,0,2.54-8.25,7.91-5.5,0,0-2.83-2.9-2.54,17.46l.28,20.36h-109.05Z"/>
      <path class="cls-7" d="M450.18,121.19s-11-50.19,41.6-66.69c0,0,4.13-4.47,3.44-11.34,0,0,2.41,10.66,5.5,11.34,0,0,46.07,9.97,37.47,66.69h-88.01Z"/>
      <g class="cls-20">
        <g class="cls-22">
          <path class="cls-1" d="M428.75,70.16c22.02,23.06,44.03,46.12,66.05,69.18,3.1,3.25,6.2,6.49,9.3,9.74,1.11,1.17,2.88-.6,1.77-1.77-22.02-23.06-44.03-46.12-66.05-69.18-3.1-3.25-6.2-6.49-9.3-9.74-1.11-1.17-2.88.6-1.77,1.77h0Z"/>
          <path class="cls-1" d="M444.94,46.7c27.02,32.06,54.03,64.12,81.05,96.18,3.77,4.47,7.54,8.95,11.31,13.42,1.04,1.23,2.8-.54,1.77-1.77-27.02-32.06-54.03-64.12-81.05-96.18l-11.31-13.42c-1.04-1.23-2.8.54-1.77,1.77h0Z"/>
          <path class="cls-1" d="M460.65,32.91c30.22,33.92,60.43,67.85,90.65,101.77l12.83,14.41c1.07,1.2,2.84-.57,1.77-1.77-30.22-33.92-60.43-67.85-90.65-101.77-4.28-4.8-8.55-9.6-12.83-14.41-1.07-1.2-2.84.57-1.77,1.77h0Z"/>
          <path class="cls-1" d="M481.74,24.09c29.31,32.31,58.61,64.62,87.92,96.92,4.15,4.57,8.29,9.14,12.44,13.71,1.08,1.19,2.85-.58,1.77-1.77-29.31-32.31-58.61-64.62-87.92-96.92-4.15-4.57-8.29-9.14-12.44-13.71-1.08-1.19-2.85.58-1.77,1.77h0Z"/>
          <path class="cls-1" d="M582.09,44.93c-28.51,31.18-57.02,62.37-85.53,93.55-4.04,4.42-8.08,8.84-12.12,13.25-1.08,1.19.68,2.96,1.77,1.77,28.51-31.18,57.02-62.37,85.53-93.55,4.04-4.42,8.08-8.84,12.12-13.25,1.08-1.19-.68-2.96-1.77-1.77h0Z"/>
          <path class="cls-1" d="M542.78,39.12c-27.34,31.65-54.69,63.3-82.03,94.95-3.82,4.42-7.63,8.83-11.45,13.25-1.05,1.21.71,2.99,1.77,1.77,27.34-31.65,54.69-63.3,82.03-94.95,3.82-4.42,7.63-8.83,11.45-13.25,1.05-1.21-.71-2.99-1.77-1.77h0Z"/>
          <path class="cls-1" d="M528.25,10.89c-29.08,35.67-58.16,71.34-87.24,107.02-4.09,5.02-8.18,10.03-12.27,15.05-1.01,1.24.75,3.02,1.77,1.77,29.08-35.67,58.16-71.34,87.24-107.02,4.09-5.02,8.18-10.03,12.27-15.05,1.01-1.24-.75-3.02-1.77-1.77h0Z"/>
        </g>
      </g>
      <polygon class="cls-13" points="445.83 124.62 542.66 124.62 549.19 116.03 441.24 116.03 445.83 124.62"/>
      <polygon class="cls-12" points="494.42 42.69 495.76 3.72 498.11 42.69 494.42 42.69"/>
      <path class="cls-11" d="M496.26,48.95s-1.33,5,3.21,8.22c1.54,1.09,3.02,2.26,4.35,3.59,7.42,7.42,25.64,29,17.68,55.26h17.33s5.74-32.39-17.33-50.5c0,0-8.13-7.7-20.79-11.03,0,0-2.88-2.67-4.46-5.54Z"/>
      <circle class="cls-13" cx="495.63" cy="43.15" r="7.97" transform="translate(373.65 525.47) rotate(-80.78)"/>
      <path class="cls-1" d="M451.43,253.74c0-8.32.04-16.65-.01-24.97-.03-5.15-.46-13.81,6.24-15.67,2-.55,3.42-2.27,3.93-4.16.07-.27.47-.28.56-.02.38,1.1.88,2.22,1.7,3.09.76.8,1.68,1.03,2.63,1.54.91.49,1.67,1.24,2.28,2.03,1.99,2.6,2.63,5.92,2.75,9.07.34,9.67,0,19.41.02,29.09,0,.15-.13.28-.29.28h-19.5c-.16,0-.29-.12-.29-.28Z"/>
      <path class="cls-6" d="M473.34,256.73h-23.63c-1.5,0-2.71-1.21-2.71-2.71h0c0-1.5,1.21-2.71,2.71-2.71h23.63c1.5,0,2.71,1.21,2.71,2.71h0c0,1.5-1.21,2.71-2.71,2.71Z"/>
      <path class="cls-13" d="M546.4,200.35h-104.42c-2.68,0-4.86-2.18-4.86-4.86h0c0-2.68,2.18-4.86,4.86-4.86h104.42c2.68,0,4.86,2.18,4.86,4.86h0c0,2.68-2.18,4.86-4.86,4.86Z"/>
      <path class="cls-1" d="M485.39,253.58c0-8.32.04-16.65-.01-24.97-.03-5.15-.46-13.82,6.24-15.67,1.99-.55,3.42-2.27,3.93-4.16.07-.27.47-.28.56-.02.38,1.1.88,2.22,1.7,3.09.76.8,1.68,1.03,2.63,1.54.91.49,1.67,1.24,2.28,2.03,1.99,2.6,2.64,5.92,2.75,9.07.34,9.67,0,19.41.02,29.09,0,.15-.13.28-.29.28h-19.5c-.16,0-.29-.12-.29-.28Z"/>
      <path class="cls-6" d="M507.3,256.57h-23.63c-1.5,0-2.71-1.21-2.71-2.71h0c0-1.5,1.21-2.71,2.71-2.71h23.63c1.5,0,2.71,1.21,2.71,2.71h0c0,1.5-1.21,2.71-2.71,2.71Z"/>
      <path class="cls-1" d="M519.04,253.74c0-8.32.04-16.65-.01-24.97-.03-5.15-.46-13.81,6.24-15.67,1.99-.55,3.42-2.27,3.93-4.16.07-.27.47-.28.56-.02.38,1.1.88,2.22,1.7,3.09.76.8,1.68,1.03,2.63,1.54.91.49,1.67,1.24,2.28,2.03,1.99,2.6,2.64,5.92,2.75,9.07.34,9.67,0,19.41.02,29.09,0,.15-.13.28-.29.28h-19.5c-.16,0-.29-.12-.29-.28Z"/>
      <path class="cls-6" d="M540.95,256.73h-23.63c-1.5,0-2.71-1.21-2.71-2.71h0c0-1.5,1.21-2.71,2.71-2.71h23.63c1.5,0,2.71,1.21,2.71,2.71h0c0,1.5-1.21,2.71-2.71,2.71Z"/>
      <rect class="cls-2" x="177.95" y="513.32" width="205.12" height="21.82"/>
      <path class="cls-6" d="M0,509.01l523.14-.35,36.18.35s-.05,4.55-4.55,4.55H4.55s-3.8.12-4.55-4.55Z"/>
      <rect class="cls-2" x="199.95" y="503.02" width="159.59" height="19.08"/>
      <path class="cls-12" d="M289.04,4.01s-45.07.53-41.41,49.71c0,0,2.62,37.31,45.24,38.22,0,0,25.09.4,37.74-24.34,0,0-25.21,21.81-51.38-.76,0,0-17.37-14.78-10.11-40.15,0,0,3.71-14.66,19.92-22.67Z"/>
      <polygon class="cls-12" points="305.64 19.48 313.08 28.68 325.28 27.87 318.36 37.67 322.74 48.57 311.02 45.43 301.52 52.97 301.2 41.23 290.95 35 302.47 30.88 305.64 19.48"/>
      <path class="cls-12" d="M280.42,76.3c-.22,14.15-.44,28.3-.66,42.46-.05,3.22,4.95,3.22,5,0,.22-14.15.44-28.3.66-42.46.05-3.22-4.95-3.22-5,0h0Z"/>
      <polygon class="cls-14" points="104.45 320.23 364.31 326.77 83.02 326.77 104.45 320.23"/>
      <polygon class="cls-15" points="199.95 512.55 359.54 522.09 199.95 522.09 199.95 512.55"/>
    </g>
  </g>
</svg>