<?xml version="1.0" encoding="UTF-8"?>
<svg id="Layer_2" data-name="Layer 2" xmlns="http://www.w3.org/2000/svg" xmlns:xlink="http://www.w3.org/1999/xlink" viewBox="0 0 666.92 518.4">
  <defs>
    <style>
      .cls-1 {
        fill: #feece6;
      }

      .cls-1, .cls-2, .cls-3, .cls-4, .cls-5, .cls-6, .cls-7, .cls-8 {
        stroke-width: 0px;
      }

      .cls-2 {
        fill: #5e53a3;
      }

      .cls-3 {
        fill: url(#linear-gradient);
      }

      .cls-4, .cls-8 {
        fill: #1a224d;
      }

      .cls-9 {
        opacity: .39;
      }

      .cls-5 {
        fill: #198e76;
      }

      .cls-6 {
        fill: none;
      }

      .cls-7 {
        fill: #c78534;
      }

      .cls-10 {
        clip-path: url(#clippath);
      }

      .cls-8 {
        opacity: .4;
      }
    </style>
    <linearGradient id="linear-gradient" x1="337.48" y1="257.56" x2="337.48" y2="380.45" gradientUnits="userSpaceOnUse">
      <stop offset="0" stop-color="#b6be34"/>
      <stop offset=".32" stop-color="#7fad4b"/>
      <stop offset=".79" stop-color="#359669"/>
      <stop offset="1" stop-color="#198e76"/>
    </linearGradient>
    <clipPath id="clippath">
      <path class="cls-6" d="M234.09,214.3s-10.41-85.75,94.76-115.79c0,0,8.22-6.01,7.39-15.29h4.11s-1.64,10.38,9.86,15.29c0,0,104.07,34.95,89.28,122.34l-205.4-6.55Z"/>
    </clipPath>
  </defs>
  <g id="Graphics">
    <g>
      <rect class="cls-5" x="178.91" y="383.1" width="316.93" height="122.89"/>
      <path class="cls-1" d="M286.74,501.87h103.49s6.64-64.13-16.77-64.81c0,0-.2-8.82-.2-8.82,0-.16,2.56-1.85,2.79-2.08,1.71-1.7,2.92-3.82,2.95-6.28.12-9.52-11.6-14.89-18.74-18.46-7.08-3.54-14.18-7.07-21.32-10.49-1.67-.8-13.08,5.58-15.32,6.53-5.54,2.34-11.05,4.82-16.17,7.99-9,5.57-14.48,15.34-4.08,23.14l.17,8.48s-24.91-3.92-16.8,64.81Z"/>
      <path class="cls-1" d="M406.32,501.87h85.44s5.49-64.13-13.84-64.81c0,0-.16-8.82-.16-8.82,0-.16,2.11-1.85,2.3-2.08,1.41-1.7,2.41-3.82,2.44-6.28.1-9.52-9.58-14.89-15.47-18.46-5.85-3.54-11.71-7.07-17.6-10.49-1.38-.8-10.8,5.58-12.65,6.53-4.57,2.34-9.12,4.82-13.35,7.99-7.43,5.57-11.95,15.34-3.37,23.14l.14,8.48s-20.57-3.92-13.87,64.81Z"/>
      <path class="cls-1" d="M186.02,501.87h85.44s5.49-64.13-13.84-64.81c0,0-.16-8.82-.16-8.82,0-.16,2.11-1.85,2.3-2.08,1.41-1.7,2.41-3.82,2.44-6.28.1-9.52-9.58-14.89-15.47-18.46-5.85-3.54-11.71-7.07-17.6-10.49-1.38-.8-10.8,5.58-12.65,6.53-4.57,2.34-9.12,4.82-13.35,7.99-7.43,5.57-11.95,15.34-3.37,23.14l.14,8.48s-20.57-3.92-13.87,64.81Z"/>
      <path class="cls-2" d="M318.88,509.54c0-17.61.07-35.23-.02-52.84-.05-10.91-.84-29.23,11.41-33.16,3.65-1.17,6.26-4.8,7.18-8.79.13-.56.86-.59,1.02-.04.7,2.32,1.6,4.69,3.11,6.54,1.39,1.7,3.07,2.18,4.81,3.25,1.67,1.03,3.06,2.62,4.18,4.3,3.65,5.5,4.82,12.53,5.02,19.19.62,20.47,0,41.07.03,61.56,0,.33-.24.59-.54.59h-35.66c-.3,0-.54-.26-.54-.59Z"/>
      <path class="cls-2" d="M432.86,509.54c0-17.61.05-35.23-.02-52.84-.04-10.91-.69-29.23,9.42-33.16,3.01-1.17,5.16-4.8,5.93-8.79.11-.56.71-.59.84-.04.58,2.32,1.32,4.69,2.56,6.54,1.15,1.7,2.54,2.18,3.97,3.25,1.38,1.03,2.53,2.62,3.45,4.3,3.01,5.5,3.98,12.53,4.15,19.19.51,20.47,0,41.07.02,61.56,0,.33-.2.59-.44.59h-29.44c-.25,0-.44-.26-.44-.59Z"/>
      <path class="cls-2" d="M212.56,509.54c0-17.61.05-35.23-.02-52.84-.04-10.91-.69-29.23,9.42-33.16,3.01-1.17,5.16-4.8,5.93-8.79.11-.56.71-.59.84-.04.58,2.32,1.32,4.69,2.56,6.54,1.15,1.7,2.54,2.18,3.97,3.25,1.38,1.03,2.53,2.62,3.45,4.3,3.01,5.5,3.98,12.53,4.15,19.19.51,20.47,0,41.07.02,61.56,0,.33-.2.59-.44.59h-29.44c-.24,0-.44-.26-.44-.59Z"/>
      <g>
        <path class="cls-4" d="M580.26,182.3s3.06,22.45-4.06,45.46c0,0-32.26-14.51-24.96-54.92l14.31-15.3,14.71,24.76Z"/>
        <polygon class="cls-4" points="563.12 148.44 494.93 508.33 508.34 509.53 568.71 148.94 563.12 148.44"/>
        <path class="cls-4" d="M580.23,154.18s57.1,10.93,86.69,63.2c0,0-33.97.43-49.82-14.66l5.21-7.35-9.61,2.12s-50.51-28.73-32.46-43.32Z"/>
        <path class="cls-4" d="M552.95,153.65s-39.18-24.61-91.07,7.91c0,0,14.63,6.37,27.12,8.34l7.45-7.78.09,8.45s44.51,21.71,56.41-16.92Z"/>
        <path class="cls-4" d="M556.7,159s-41.73,3.92-44.16,59.45c0,0,41.65-2.97,48.15-37.89,0,0,10.95-18.58-3.99-21.55Z"/>
        <path class="cls-4" d="M553.48,147.72s-29.22-32.11-87.71-29.73c0,0,12.38,14.11,30.27,20.44l8.2-6.68-1.86,11.41s31.87,21.37,51.11,4.57Z"/>
        <path class="cls-4" d="M586.47,161.66s45.48,39.88,80.45,55.72c0,0-33.99-.26-49.82-14.66l5.21-7.35-9.61,2.12s-35.52-21.97-36.32-36.74c0,0-14.26-18.91,10.09.9Z"/>
        <path class="cls-4" d="M595.12,239.34c-30.51-31.04-33.21-52.88-30.25-65.6-5.64-1.48-9.08-4.62-9.08-4.62-16.06-5.34-12.21-29.65-12.21-29.65,40.6-.35,49.36,23.56,49.36,23.56-1.47,1.57-2.93,2.94-4.36,4.14,13.13,11.74,15.89,34.58,15.89,34.58-8.19-2-12.29,4.39-12.29,4.39,11.11-1.54,11.73,1.05,11.73,1.05-.21,11.8-8.78,32.15-8.78,32.15Z"/>
        <path class="cls-4" d="M564.87,173.74l-52.33,44.71s41.43,2.84,52.33-44.71Z"/>
      </g>
      <g>
        <path class="cls-4" d="M576.07,325.7s.72,13.34-4.57,26.51c0,0-18.25-10.08-12.02-33.46l9.14-8.3,7.45,15.25Z"/>
        <polygon class="cls-4" points="567.63 304.99 510.27 513.13 518.09 514.48 570.88 305.55 567.63 304.99"/>
        <path class="cls-4" d="M577.4,309.18s33.02,9.17,47.89,41.29c0,0-19.98-1.38-28.56-11.01l3.42-4.07-5.75.79s-28.29-19.3-16.99-27.01Z"/>
        <path class="cls-4" d="M561.4,307.56s-21.84-16.34-53.88.27c0,0,8.29,4.45,15.53,6.2l4.75-4.21-.35,4.97s25.1,14.89,33.95-7.23Z"/>
        <path class="cls-4" d="M563.34,310.88s-24.7.3-28.8,32.8c0,0,24.61.25,30.1-19.95,0,0,7.33-10.39-1.31-12.85Z"/>
        <path class="cls-4" d="M562,304.1s-15.62-20.27-50.1-21.68c0,0,6.6,8.89,16.8,13.46l5.14-3.53-1.64,6.61s17.7,14.08,29.8,5.14Z"/>
        <path class="cls-4" d="M580.71,313.88s24.8,25.61,44.58,36.6c0,0-19.96-1.79-28.56-11.01l3.42-4.07-5.75.79s-19.81-14.61-19.57-23.33c0,0-7.47-11.79,5.88,1.01Z"/>
        <path class="cls-4" d="M582.06,359.92c-16.43-19.7-16.97-32.66-14.62-39.99-3.24-1.14-5.11-3.15-5.11-3.15-9.18-3.91-5.75-18.01-5.75-18.01,23.87,1.74,27.86,16.21,27.86,16.21-.94.85-1.86,1.59-2.76,2.22,7.15,7.53,7.67,21.08,7.67,21.08-4.72-1.57-7.43,1.99-7.43,1.99,6.6-.37,6.84,1.18,6.84,1.18-.69,6.92-6.71,18.47-6.71,18.47Z"/>
        <path class="cls-4" d="M567.44,319.94l-32.89,23.75s24.2,3.66,32.89-23.75Z"/>
      </g>
      <g>
        <path class="cls-4" d="M86.66,180.7s-3.06,22.45,4.06,45.46c0,0,32.26-14.51,24.96-54.92l-14.31-15.3-14.71,24.76Z"/>
        <polygon class="cls-4" points="103.79 146.84 171.98 506.73 158.58 507.93 98.21 147.34 103.79 146.84"/>
        <path class="cls-4" d="M86.69,152.58S29.58,163.51,0,215.78c0,0,33.97.43,49.82-14.66l-5.21-7.35,9.61,2.12s50.51-28.73,32.46-43.32Z"/>
        <path class="cls-4" d="M113.97,152.05s39.18-24.61,91.07,7.91c0,0-14.63,6.37-27.12,8.34l-7.45-7.78-.09,8.45s-44.51,21.71-56.41-16.92Z"/>
        <path class="cls-4" d="M110.22,157.4s41.73,3.92,44.16,59.45c0,0-41.65-2.97-48.15-37.89,0,0-10.95-18.58,3.99-21.55Z"/>
        <path class="cls-4" d="M113.44,146.13s29.22-32.11,87.71-29.73c0,0-12.38,14.11-30.27,20.44l-8.2-6.68,1.86,11.41s-31.87,21.37-51.11,4.57Z"/>
        <path class="cls-4" d="M80.45,160.06S34.96,199.94,0,215.78c0,0,33.99-.26,49.82-14.66l-5.21-7.35,9.61,2.12s35.52-21.97,36.32-36.74c0,0,14.26-18.91-10.09.9Z"/>
        <path class="cls-4" d="M71.79,237.74c30.51-31.04,33.21-52.88,30.26-65.6,5.64-1.48,9.08-4.62,9.08-4.62,16.06-5.34,12.21-29.65,12.21-29.65-40.6-.35-49.36,23.56-49.36,23.56,1.47,1.57,2.93,2.94,4.36,4.14-13.13,11.74-15.89,34.58-15.89,34.58,8.19-2,12.29,4.39,12.29,4.39-11.11-1.54-11.73,1.05-11.73,1.05.21,11.8,8.78,32.15,8.78,32.15Z"/>
        <path class="cls-4" d="M102.05,172.14l52.33,44.71s-41.43,2.84-52.33-44.71Z"/>
      </g>
      <g>
        <path class="cls-4" d="M90.85,324.11s-.72,13.34,4.57,26.51c0,0,18.25-10.08,12.02-33.46l-9.14-8.3-7.45,15.25Z"/>
        <polygon class="cls-4" points="99.29 303.39 156.64 511.53 148.82 512.88 96.03 303.95 99.29 303.39"/>
        <path class="cls-4" d="M89.51,307.59s-33.02,9.17-47.89,41.29c0,0,19.98-1.38,28.56-11.01l-3.41-4.07,5.75.79s28.29-19.3,16.99-27.01Z"/>
        <path class="cls-4" d="M105.51,305.96s21.84-16.34,53.88.27c0,0-8.29,4.45-15.53,6.2l-4.75-4.21.35,4.97s-25.1,14.89-33.95-7.23Z"/>
        <path class="cls-4" d="M103.57,309.29s24.7.3,28.8,32.8c0,0-24.61.25-30.1-19.95,0,0-7.33-10.39,1.31-12.85Z"/>
        <path class="cls-4" d="M104.92,302.51s15.62-20.27,50.1-21.68c0,0-6.6,8.89-16.8,13.46l-5.14-3.53,1.64,6.61s-17.7,14.08-29.8,5.14Z"/>
        <path class="cls-4" d="M86.21,312.28s-24.8,25.61-44.58,36.6c0,0,19.96-1.79,28.56-11.01l-3.41-4.07,5.75.79s19.81-14.61,19.57-23.33c0,0,7.47-11.79-5.88,1.01Z"/>
        <path class="cls-4" d="M84.86,358.33c16.43-19.7,16.97-32.66,14.62-39.99,3.24-1.14,5.11-3.15,5.11-3.15,9.18-3.91,5.75-18.01,5.75-18.01-23.87,1.74-27.86,16.21-27.86,16.21.94.85,1.86,1.59,2.76,2.22-7.15,7.53-7.67,21.08-7.67,21.08,4.72-1.57,7.43,1.99,7.43,1.99-6.6-.37-6.84,1.18-6.84,1.18.69,6.92,6.71,18.47,6.71,18.47Z"/>
        <path class="cls-4" d="M99.48,318.34l32.89,23.75s-24.2,3.66-32.89-23.75Z"/>
      </g>
      <path class="cls-7" d="M547.69,518.4H125.81c-4.56,0-8.26-3.7-8.26-8.26h0c0-4.56,3.7-8.26,8.26-8.26h421.88c4.56,0,8.26,3.7,8.26,8.26h0c0,4.56-3.7,8.26-8.26,8.26Z"/>
      <polygon class="cls-2" points="179.9 256.38 231.94 240.54 443.36 240.54 495.94 259.65 179.9 256.38"/>
      <rect class="cls-3" x="179.01" y="257.56" width="316.93" height="122.89"/>
      <polygon class="cls-7" points="178.91 382.13 495.84 382.13 502.21 365.45 170.76 365.45 178.91 382.13"/>
      <path class="cls-4" d="M234.13,214.87s-10.41-85.75,94.76-115.79c0,0,8.22-6.01,7.39-15.29h4.11s-1.64,10.38,9.86,15.29c0,0,104.07,34.95,89.28,122.34l-205.4-6.55Z"/>
      <path class="cls-7" d="M231.94,240.54s3.83-19.66-5.48-28.4c0,0,10.95-6.55,19.17,3.82,0,0,12.05-17.48,23.55,0,0,0,11.5-14.75,23,0,0,0,10.41-13.11,23-.55,0,0,14.24-13.11,25.74,0,0,0,14.79-12.02,25.2,0,0,0,10.41-11.47,24.1-.55,0,0,12.05-14.75,23,0,0,0,10.95-12.02,19.17,0,0,0,4.93-6.55,15.34-4.37,0,0-5.48-2.31-4.93,13.87l.55,16.17h-211.42Z"/>
      <ellipse class="cls-7" cx="338.59" cy="92.39" rx="10.76" ry="10.73"/>
      <path class="cls-4" d="M117.54,514.83l410.05-.27,28.36.27s-.04,3.56-3.56,3.56H121.11s-2.98.09-3.56-3.56Z"/>
      <path class="cls-7" d="M344.02,0s-35.9.42-32.99,39.49c0,0,2.09,29.63,36.04,30.36,0,0,19.99.32,30.07-19.33,0,0-20.08,17.32-40.93-.6,0,0-13.84-11.74-8.05-31.89,0,0,2.95-11.65,15.87-18.01Z"/>
      <polygon class="cls-7" points="357.24 12.29 363.17 19.6 372.89 18.95 367.38 26.74 370.86 35.39 361.53 32.9 353.96 38.89 353.7 29.57 345.54 24.61 354.72 21.35 357.24 12.29"/>
      <path class="cls-7" d="M336.64,57.42c-.18,11.24-.35,22.48-.53,33.73-.05,3.22,4.95,3.22,5,0,.18-11.24.35-22.48.53-33.73.05-3.22-4.95-3.22-5,0h0Z"/>
      <polygon class="cls-8" points="196.97 251.18 403.98 256.38 179.9 256.38 196.97 251.18"/>
      <path class="cls-1" d="M201.28,343.67c0-12.01.04-24.03-.01-36.04-.03-7.44-.47-19.94,6.43-22.62,2.05-.8,3.52-3.27,4.04-6,.07-.38.48-.4.58-.03.39,1.58.9,3.2,1.75,4.46.78,1.16,1.73,1.49,2.71,2.22.94.7,1.72,1.79,2.35,2.93,2.05,3.75,2.71,8.55,2.83,13.09.35,13.96,0,28.01.02,41.99,0,.22-.14.4-.3.4h-20.08c-.17,0-.3-.18-.3-.4Z"/>
      <path class="cls-1" d="M253.02,343.67c0-12.01.04-24.03-.01-36.04-.03-7.44-.47-19.94,6.43-22.62,2.05-.8,3.52-3.27,4.04-6,.07-.38.48-.4.58-.03.39,1.58.9,3.2,1.75,4.46.78,1.16,1.73,1.49,2.71,2.22.94.7,1.72,1.79,2.35,2.93,2.05,3.75,2.71,8.55,2.83,13.09.35,13.96,0,28.01.02,41.99,0,.22-.14.4-.3.4h-20.08c-.17,0-.3-.18-.3-.4Z"/>
      <path class="cls-1" d="M308.33,343.72c0-12.01.04-24.03-.01-36.04-.03-7.44-.47-19.94,6.43-22.62,2.05-.8,3.52-3.27,4.04-6,.07-.38.48-.4.58-.03.39,1.58.9,3.2,1.75,4.46.78,1.16,1.73,1.49,2.71,2.22.94.7,1.72,1.79,2.35,2.93,2.05,3.75,2.71,8.55,2.83,13.09.35,13.96,0,28.01.02,41.99,0,.22-.14.4-.3.4h-20.08c-.17,0-.3-.18-.3-.4Z"/>
      <path class="cls-1" d="M360.07,343.72c0-12.01.04-24.03-.01-36.04-.03-7.44-.47-19.94,6.43-22.62,2.05-.8,3.52-3.27,4.04-6,.07-.38.48-.4.58-.03.39,1.58.9,3.2,1.75,4.46.78,1.16,1.73,1.49,2.71,2.22.94.7,1.72,1.79,2.35,2.93,2.05,3.75,2.71,8.55,2.83,13.09.35,13.96,0,28.01.02,41.99,0,.22-.14.4-.3.4h-20.08c-.17,0-.3-.18-.3-.4Z"/>
      <path class="cls-1" d="M408.65,343.72c0-12.01.04-24.03-.01-36.04-.03-7.44-.47-19.94,6.43-22.62,2.05-.8,3.52-3.27,4.04-6,.07-.38.48-.4.58-.03.39,1.58.9,3.2,1.75,4.46.78,1.16,1.73,1.49,2.71,2.22.94.7,1.72,1.79,2.35,2.93,2.05,3.75,2.71,8.55,2.83,13.09.35,13.96,0,28.01.02,41.99,0,.22-.14.4-.3.4h-20.08c-.17,0-.3-.18-.3-.4Z"/>
      <path class="cls-1" d="M460.39,343.72c0-12.01.04-24.03-.01-36.04-.03-7.44-.47-19.94,6.43-22.62,2.05-.8,3.52-3.27,4.04-6,.07-.38.48-.4.58-.03.39,1.58.9,3.2,1.75,4.46.78,1.16,1.73,1.49,2.71,2.22.94.7,1.72,1.79,2.35,2.93,2.05,3.75,2.71,8.55,2.83,13.09.35,13.96,0,28.01.02,41.99,0,.22-.14.4-.3.4h-20.08c-.17,0-.3-.18-.3-.4Z"/>
      <g class="cls-9">
        <g class="cls-10">
          <path class="cls-1" d="M312.78,98.34c-9.43,3.57-23.18,19.06-11.86,28.24,11.09,9,22.43-3.43,28.11-12.09-1.52-.64-3.05-1.28-4.57-1.93-3.06,9.93,2.95,21.16,14.07,21.23,10.23.06,16.29-10.78,11.74-19.64-1.31,1.01-2.62,2.02-3.93,3.03,8.15,6.91,21.76,10.4,31.16,3.64,8.19-5.89,6.93-17.38,5.37-26.04-.57-3.16-5.39-1.82-4.82,1.33,1.11,6.16,2.61,15.12-2.59,19.95-6.93,6.44-19.27,2.94-25.58-2.41-2.15-1.82-5.27.43-3.93,3.03,3.31,6.44-2.5,13.34-9.39,11.91-6.85-1.41-9.14-8.65-7.28-14.7.86-2.8-3.06-4.23-4.57-1.93-3.87,5.9-9.93,14.92-18.34,11.97-5.55-1.95-4.81-7.88-2.47-12.14,2.24-4.06,5.9-7,10.2-8.63,2.98-1.13,1.69-5.96-1.33-4.82h0Z"/>
          <path class="cls-1" d="M293.87,111.28c-5.96,2.61-11.46,6-16.41,10.24-4,3.43-8.49,7.64-7.46,13.42.81,4.48,4.46,8.17,8.73,9.57,2.66.87,5.57.92,8.32.56,3.7-.5,9.47-3.9,12.06-.01,1.39,2.08,1.76,4.81,3.33,6.94,1.54,2.1,3.41,3.94,5.58,5.39,4.61,3.08,10.32,4.16,15.74,3.03,5.24-1.09,9.6-4.04,12.88-8.2,3.16-4.01,5.75-4.98,10.52-2.53,2.86,1.47,5.53,3.11,8.66,4,12.37,3.49,26.56-4.7,24.13-18.67-1.22.94-2.45,1.88-3.67,2.82,8.44,4.15,20.12,8.69,27.92.67,7.61-7.83,1.68-19.32-3.34-26.72-1.8-2.65-6.13-.15-4.32,2.52,3.62,5.34,9.73,14.69,4.12,20.66-5.89,6.26-15.71,1.58-21.86-1.45-2.05-1.01-4.05.64-3.67,2.82,1.63,9.4-8.31,14.49-16.35,12.92-5.83-1.14-10.59-6.31-16.65-6.36-5.49-.05-7.45,4.47-10.77,7.89-5.08,5.24-13.18,6.6-19.59,3.04-2.96-1.65-5.48-4.36-6.9-7.44-.97-2.11-1.14-4.6-2.62-6.46-3.45-4.32-8.76-1.37-13.01-.36-4.13.99-9.29,1.41-12.48-2.03-3.37-3.64-1.29-7.34,1.8-10.3,5.19-4.98,11.26-8.76,17.82-11.64,2.94-1.29.4-5.6-2.52-4.32h0Z"/>
          <path class="cls-1" d="M271.48,130.25c-11.01,2.52-27.91,16.58-19.92,29.3,7.89,12.56,30.07,9.31,41.31,4.59-1.05-.8-2.11-1.61-3.16-2.41.67,13.06,11.41,23.71,24.23,25.45,14.52,1.97,27.99-7.37,34.97-19.55-1.31.17-2.62.34-3.93.51,13.8,16.96,40.9,10.52,45.98-10.6-1.39.37-2.79.74-4.18,1.1,9,7.3,23.52,16.85,34.27,6.7,8.63-8.16,4.24-22.01-3.04-29.4-2.26-2.3-5.8,1.24-3.54,3.54,5.38,5.46,9.8,16.56,2.73,22.55-8.6,7.28-20.11-1.42-26.89-6.92-1.38-1.12-3.7-.88-4.18,1.1-4.27,17.71-26.21,22.41-37.62,8.39-1.03-1.26-3.19-.78-3.93.51-5.67,9.89-16.05,17.8-27.91,17.33-11.08-.45-21.4-9.43-21.98-20.7-.07-1.43-1.57-3.08-3.16-2.41-9.54,4-24.13,6.6-33.24.06-6-4.31-2.86-11.85,1.16-16.5,3.51-4.06,8.16-6.62,13.36-7.81,3.14-.72,1.81-5.54-1.33-4.82h0Z"/>
          <path class="cls-1" d="M253.11,149.71c-7.93-.87-15.37,3.78-19.03,10.75-3.77,7.19-2.55,15.6,2.19,22.02,11.2,15.19,31.97,12.17,44.81,1.04-1.39-.37-2.79-.74-4.18-1.1,3.42,14.93,15.95,27.16,31.22,29.51,15.54,2.39,31.32-5.88,38.95-19.43h-4.32c6.56,11.6,19.67,20.27,33.39,17.91,12.43-2.14,22.55-13.65,21.72-26.43-1.42.59-2.85,1.18-4.27,1.77,8.2,10.13,22.65,14.64,35.05,10.12,12.22-4.46,20.27-16.45,20.62-29.31.09-3.22-4.91-3.22-5,0-.3,11.08-7.54,21.59-18.3,24.94-10.55,3.29-22.01-.86-28.83-9.29-1.35-1.67-4.4-.3-4.27,1.77.7,10.78-8.05,20.51-18.74,21.69-11.35,1.25-21.68-6.21-27.05-15.7-.92-1.62-3.4-1.63-4.32,0-6.74,11.98-20.9,19.48-34.67,16.91-13.08-2.44-23.42-12.96-26.35-25.79-.45-1.95-2.84-2.27-4.18-1.1-9.94,8.62-25.5,11.91-35.54,1.58-4.22-4.34-6.49-10.71-4.46-16.62,2.28-6.59,8.6-10.99,15.55-10.24,3.19.35,3.17-4.65,0-5h0Z"/>
        </g>
      </g>
    </g>
  </g>
</svg>